%FSLAX23Y23*%
%MOIN*%
G70*
G01*
G75*
G04 Layer_Color=255*
%ADD10R,0.020X0.055*%
%ADD11R,0.037X0.067*%
%ADD12R,0.051X0.033*%
%ADD13R,0.132X0.213*%
%ADD14R,0.079X0.087*%
%ADD15C,0.025*%
%ADD16C,0.020*%
%ADD17C,0.015*%
%ADD18C,0.010*%
%ADD19C,0.005*%
%ADD20O,0.043X0.142*%
%ADD21C,0.063*%
%ADD22R,0.063X0.063*%
%ADD23P,0.128X8X112.5*%
%ADD24P,0.128X8X202.5*%
%ADD25C,0.081*%
%ADD26C,0.060*%
%ADD27C,0.059*%
%ADD28R,0.059X0.059*%
%ADD29R,0.059X0.059*%
%ADD30C,0.016*%
%ADD31C,0.024*%
D20*
X551Y146D02*
D03*
X839D02*
D03*
D21*
X155Y150D02*
D03*
X255D02*
D03*
X1410Y705D02*
D03*
X1510D02*
D03*
D22*
X355Y150D02*
D03*
X1310Y705D02*
D03*
D23*
X1839Y265D02*
D03*
Y509D02*
D03*
D24*
X2036Y383D02*
D03*
D25*
X579Y725D02*
D03*
X1111D02*
D03*
D26*
X425Y625D02*
D03*
Y725D02*
D03*
X1900Y1305D02*
D03*
X2000D02*
D03*
Y905D02*
D03*
X1900D02*
D03*
X250Y1305D02*
D03*
X150D02*
D03*
X250Y905D02*
D03*
X150D02*
D03*
D27*
X1715Y1105D02*
D03*
X1815D02*
D03*
X1915D02*
D03*
X740Y539D02*
D03*
X840D02*
D03*
X-670Y1245D02*
D03*
Y1145D02*
D03*
Y1045D02*
D03*
Y945D02*
D03*
Y845D02*
D03*
Y745D02*
D03*
Y645D02*
D03*
Y545D02*
D03*
Y445D02*
D03*
Y345D02*
D03*
Y245D02*
D03*
X3189Y1070D02*
D03*
Y1170D02*
D03*
X2589Y1070D02*
D03*
Y970D02*
D03*
Y1170D02*
D03*
X3189Y970D02*
D03*
Y870D02*
D03*
Y670D02*
D03*
Y570D02*
D03*
Y770D02*
D03*
Y170D02*
D03*
Y270D02*
D03*
Y370D02*
D03*
Y470D02*
D03*
X2589Y670D02*
D03*
Y870D02*
D03*
Y770D02*
D03*
Y570D02*
D03*
Y470D02*
D03*
Y370D02*
D03*
Y270D02*
D03*
Y170D02*
D03*
Y70D02*
D03*
X-70Y1245D02*
D03*
Y1145D02*
D03*
Y1045D02*
D03*
Y945D02*
D03*
Y845D02*
D03*
Y745D02*
D03*
Y645D02*
D03*
Y545D02*
D03*
Y445D02*
D03*
Y345D02*
D03*
Y245D02*
D03*
X135Y1105D02*
D03*
X235D02*
D03*
X335D02*
D03*
X135Y635D02*
D03*
Y535D02*
D03*
Y435D02*
D03*
X270Y535D02*
D03*
Y635D02*
D03*
Y735D02*
D03*
D28*
X2015Y1105D02*
D03*
X940Y539D02*
D03*
X435Y1105D02*
D03*
D29*
X-670Y145D02*
D03*
X3189Y70D02*
D03*
X-70Y145D02*
D03*
X135Y735D02*
D03*
X270Y435D02*
D03*
D31*
X2504Y1125D02*
D03*
X2465D02*
D03*
X2504Y1165D02*
D03*
X2465D02*
D03*
X2504Y1204D02*
D03*
X2465D02*
D03*
X2504Y1244D02*
D03*
X2465D02*
D03*
X2504Y1283D02*
D03*
X2465D02*
D03*
X2504Y1086D02*
D03*
X2465D02*
D03*
X2426D02*
D03*
X2386D02*
D03*
X2347D02*
D03*
X2307D02*
D03*
X2268D02*
D03*
X2504Y1047D02*
D03*
X2465D02*
D03*
X2426D02*
D03*
X2386D02*
D03*
X2347D02*
D03*
X2307D02*
D03*
X2268D02*
D03*
X2229D02*
D03*
X2189D02*
D03*
X2229Y1086D02*
D03*
X2189D02*
D03*
X2229Y1125D02*
D03*
X2189D02*
D03*
X2229Y1165D02*
D03*
X2189D02*
D03*
Y1362D02*
D03*
X2229D02*
D03*
X2268D02*
D03*
X2307D02*
D03*
X2347D02*
D03*
X2386D02*
D03*
X2426D02*
D03*
X2465D02*
D03*
X2504D02*
D03*
X2189Y1322D02*
D03*
X2229D02*
D03*
X2268D02*
D03*
X2307D02*
D03*
X2347D02*
D03*
X2386D02*
D03*
X2426D02*
D03*
X2465D02*
D03*
X2504D02*
D03*
X2189Y1283D02*
D03*
X2229D02*
D03*
X2189Y1244D02*
D03*
X2229D02*
D03*
X2189Y1204D02*
D03*
X2229D02*
D03*
X2811Y1125D02*
D03*
Y1085D02*
D03*
X2851Y1125D02*
D03*
Y1085D02*
D03*
X2890Y1125D02*
D03*
Y1085D02*
D03*
X2930Y1125D02*
D03*
Y1085D02*
D03*
X2969Y1125D02*
D03*
Y1085D02*
D03*
X2772Y1125D02*
D03*
Y1085D02*
D03*
Y1046D02*
D03*
Y1006D02*
D03*
Y967D02*
D03*
Y928D02*
D03*
Y888D02*
D03*
X2733Y1125D02*
D03*
Y1085D02*
D03*
Y1046D02*
D03*
Y1006D02*
D03*
Y967D02*
D03*
Y928D02*
D03*
Y888D02*
D03*
Y849D02*
D03*
Y810D02*
D03*
X2772Y849D02*
D03*
Y810D02*
D03*
X2811Y849D02*
D03*
Y810D02*
D03*
X2851Y849D02*
D03*
Y810D02*
D03*
X3048D02*
D03*
Y849D02*
D03*
Y888D02*
D03*
Y928D02*
D03*
Y967D02*
D03*
Y1006D02*
D03*
Y1046D02*
D03*
Y1085D02*
D03*
Y1125D02*
D03*
X3008Y810D02*
D03*
Y849D02*
D03*
Y888D02*
D03*
Y928D02*
D03*
Y967D02*
D03*
Y1006D02*
D03*
Y1046D02*
D03*
Y1085D02*
D03*
Y1125D02*
D03*
X2969Y810D02*
D03*
Y849D02*
D03*
X2930Y810D02*
D03*
Y849D02*
D03*
X2890Y810D02*
D03*
Y849D02*
D03*
X2969Y105D02*
D03*
Y144D02*
D03*
X2930Y105D02*
D03*
Y144D02*
D03*
X2890Y105D02*
D03*
Y144D02*
D03*
X2851Y105D02*
D03*
Y144D02*
D03*
X2811Y105D02*
D03*
Y144D02*
D03*
X3008Y105D02*
D03*
Y144D02*
D03*
Y183D02*
D03*
Y223D02*
D03*
Y262D02*
D03*
Y301D02*
D03*
Y341D02*
D03*
X3048Y105D02*
D03*
Y144D02*
D03*
Y183D02*
D03*
Y223D02*
D03*
Y262D02*
D03*
Y301D02*
D03*
Y341D02*
D03*
Y380D02*
D03*
Y420D02*
D03*
X3008Y380D02*
D03*
Y420D02*
D03*
X2969Y380D02*
D03*
Y420D02*
D03*
X2930Y380D02*
D03*
Y420D02*
D03*
X2733D02*
D03*
Y380D02*
D03*
Y341D02*
D03*
Y301D02*
D03*
Y262D02*
D03*
Y223D02*
D03*
Y183D02*
D03*
Y144D02*
D03*
Y105D02*
D03*
X2772Y420D02*
D03*
Y380D02*
D03*
Y341D02*
D03*
Y301D02*
D03*
Y262D02*
D03*
Y223D02*
D03*
Y183D02*
D03*
Y144D02*
D03*
Y105D02*
D03*
X2811Y420D02*
D03*
Y380D02*
D03*
X2851Y420D02*
D03*
Y380D02*
D03*
X2890Y420D02*
D03*
Y380D02*
D03*
X2504Y118D02*
D03*
X2465D02*
D03*
X2504Y157D02*
D03*
X2465D02*
D03*
X2504Y197D02*
D03*
X2465D02*
D03*
X2504Y236D02*
D03*
X2465D02*
D03*
X2504Y276D02*
D03*
X2465D02*
D03*
X2504Y79D02*
D03*
X2465D02*
D03*
X2426D02*
D03*
X2386D02*
D03*
X2347D02*
D03*
X2307D02*
D03*
X2268D02*
D03*
X2504Y39D02*
D03*
X2465D02*
D03*
X2426D02*
D03*
X2386D02*
D03*
X2347D02*
D03*
X2307D02*
D03*
X2268D02*
D03*
X2229D02*
D03*
X2189D02*
D03*
X2229Y79D02*
D03*
X2189D02*
D03*
X2229Y118D02*
D03*
X2189D02*
D03*
X2229Y157D02*
D03*
X2189D02*
D03*
Y354D02*
D03*
X2229D02*
D03*
X2268D02*
D03*
X2307D02*
D03*
X2347D02*
D03*
X2386D02*
D03*
X2426D02*
D03*
X2465D02*
D03*
X2504D02*
D03*
X2189Y315D02*
D03*
X2229D02*
D03*
X2268D02*
D03*
X2307D02*
D03*
X2347D02*
D03*
X2386D02*
D03*
X2426D02*
D03*
X2465D02*
D03*
X2504D02*
D03*
X2189Y276D02*
D03*
X2229D02*
D03*
X2189Y236D02*
D03*
X2229D02*
D03*
X2189Y197D02*
D03*
X2229D02*
D03*
X2504Y622D02*
D03*
X2465D02*
D03*
X2504Y661D02*
D03*
X2465D02*
D03*
X2504Y701D02*
D03*
X2465D02*
D03*
X2504Y740D02*
D03*
X2465D02*
D03*
X2504Y779D02*
D03*
X2465D02*
D03*
X2504Y582D02*
D03*
X2465D02*
D03*
X2426D02*
D03*
X2386D02*
D03*
X2347D02*
D03*
X2307D02*
D03*
X2268D02*
D03*
X2504Y543D02*
D03*
X2465D02*
D03*
X2426D02*
D03*
X2386D02*
D03*
X2347D02*
D03*
X2307D02*
D03*
X2268D02*
D03*
X2229D02*
D03*
X2189D02*
D03*
X2229Y582D02*
D03*
X2189D02*
D03*
X2229Y622D02*
D03*
X2189D02*
D03*
X2229Y661D02*
D03*
X2189D02*
D03*
Y858D02*
D03*
X2229D02*
D03*
X2268D02*
D03*
X2307D02*
D03*
X2347D02*
D03*
X2386D02*
D03*
X2426D02*
D03*
X2465D02*
D03*
X2504D02*
D03*
X2189Y819D02*
D03*
X2229D02*
D03*
X2268D02*
D03*
X2307D02*
D03*
X2347D02*
D03*
X2386D02*
D03*
X2426D02*
D03*
X2465D02*
D03*
X2504D02*
D03*
X2189Y779D02*
D03*
X2229D02*
D03*
X2189Y740D02*
D03*
X2229D02*
D03*
X2189Y701D02*
D03*
X2229D02*
D03*
M02*
