%FSLAX23Y23*%
%MOIN*%
G70*
G01*
G75*
%ADD10R,0.020X0.055*%
%ADD11R,0.037X0.067*%
%ADD12R,0.051X0.033*%
%ADD13R,0.132X0.213*%
%ADD14R,0.079X0.087*%
%ADD15C,0.025*%
%ADD16C,0.020*%
%ADD17C,0.015*%
%ADD18C,0.010*%
%ADD19C,0.005*%
%ADD20O,0.043X0.142*%
%ADD21C,0.063*%
%ADD22R,0.063X0.063*%
%ADD23P,0.128X8X112.5*%
%ADD24P,0.128X8X202.5*%
%ADD25C,0.081*%
%ADD26C,0.060*%
%ADD27C,0.059*%
%ADD28R,0.059X0.059*%
%ADD29R,0.059X0.059*%
%ADD30C,0.016*%
%ADD31C,0.024*%
%ADD32C,0.010*%
%ADD33C,0.012*%
%ADD34C,0.006*%
%ADD35C,0.008*%
%ADD36C,0.006*%
%ADD37R,0.028X0.063*%
%ADD38R,0.045X0.075*%
%ADD39R,0.059X0.041*%
%ADD40R,0.140X0.221*%
%ADD41R,0.087X0.095*%
%ADD42O,0.051X0.150*%
%ADD43C,0.071*%
%ADD44R,0.071X0.071*%
%ADD45P,0.137X8X112.5*%
%ADD46P,0.137X8X202.5*%
%ADD47C,0.089*%
%ADD48C,0.068*%
%ADD49C,0.067*%
%ADD50R,0.067X0.067*%
%ADD51R,0.067X0.067*%
%ADD52C,0.028*%
%ADD53C,0.002*%
%ADD54C,0.004*%
%ADD55C,0.007*%
D19*
X538Y146D02*
X565D01*
X551Y132D02*
Y159D01*
X825Y146D02*
X852D01*
X839Y132D02*
Y159D01*
X135Y150D02*
X175D01*
X155Y130D02*
Y170D01*
X235Y150D02*
X275D01*
X255Y130D02*
Y170D01*
X335Y150D02*
X375D01*
X355Y130D02*
Y170D01*
X1804Y265D02*
X1874D01*
X1839Y230D02*
Y300D01*
X1804Y509D02*
X1874D01*
X1839Y474D02*
Y545D01*
X2000Y383D02*
X2071D01*
X2036Y348D02*
Y419D01*
X549Y725D02*
X610D01*
X579Y694D02*
Y756D01*
X1080Y725D02*
X1141D01*
X1111Y694D02*
Y756D01*
X407Y625D02*
X443D01*
X425Y607D02*
Y643D01*
X407Y725D02*
X443D01*
X425Y707D02*
Y743D01*
X1697Y1105D02*
X1733D01*
X1715Y1087D02*
Y1123D01*
X1797Y1105D02*
X1833D01*
X1815Y1087D02*
Y1123D01*
X1897Y1105D02*
X1933D01*
X1915Y1087D02*
Y1123D01*
X1997Y1105D02*
X2033D01*
X2015Y1087D02*
Y1123D01*
X722Y539D02*
X758D01*
X740Y521D02*
Y557D01*
X822Y539D02*
X858D01*
X840Y521D02*
Y557D01*
X922Y539D02*
X958D01*
X940Y521D02*
Y557D01*
X-688Y1245D02*
X-652D01*
X-670Y1227D02*
Y1263D01*
X-688Y1145D02*
X-652D01*
X-670Y1127D02*
Y1163D01*
X-688Y1045D02*
X-652D01*
X-670Y1027D02*
Y1063D01*
X-688Y945D02*
X-652D01*
X-670Y927D02*
Y963D01*
X-688Y845D02*
X-652D01*
X-670Y827D02*
Y863D01*
X-688Y745D02*
X-652D01*
X-670Y727D02*
Y763D01*
X-688Y645D02*
X-652D01*
X-670Y627D02*
Y663D01*
X-688Y545D02*
X-652D01*
X-670Y527D02*
Y563D01*
X-688Y445D02*
X-652D01*
X-670Y427D02*
Y463D01*
X-688Y345D02*
X-652D01*
X-670Y327D02*
Y363D01*
X-688Y245D02*
X-652D01*
X-670Y227D02*
Y263D01*
X-688Y145D02*
X-652D01*
X-670Y127D02*
Y163D01*
X3168Y1070D02*
X3211D01*
X3189Y1048D02*
Y1092D01*
X3168Y1170D02*
X3211D01*
X3189Y1148D02*
Y1192D01*
X2568Y1070D02*
X2611D01*
X2589Y1048D02*
Y1092D01*
X2568Y970D02*
X2611D01*
X2589Y948D02*
Y992D01*
X2568Y1170D02*
X2611D01*
X2589Y1148D02*
Y1192D01*
X3168Y970D02*
X3211D01*
X3189Y948D02*
Y992D01*
X3168Y870D02*
X3211D01*
X3189Y848D02*
Y892D01*
X3168Y670D02*
X3211D01*
X3189Y648D02*
Y692D01*
X3168Y570D02*
X3211D01*
X3189Y548D02*
Y592D01*
X3168Y770D02*
X3211D01*
X3189Y748D02*
Y792D01*
X3168Y70D02*
X3211D01*
X3189Y48D02*
Y92D01*
X3168Y170D02*
X3211D01*
X3189Y148D02*
Y192D01*
X3168Y270D02*
X3211D01*
X3189Y248D02*
Y292D01*
X3168Y370D02*
X3211D01*
X3189Y348D02*
Y392D01*
X3168Y470D02*
X3211D01*
X3189Y448D02*
Y492D01*
X2568Y670D02*
X2611D01*
X2589Y648D02*
Y692D01*
X2568Y870D02*
X2611D01*
X2589Y848D02*
Y892D01*
X2568Y770D02*
X2611D01*
X2589Y748D02*
Y792D01*
X2568Y570D02*
X2611D01*
X2589Y548D02*
Y592D01*
X2568Y470D02*
X2611D01*
X2589Y448D02*
Y492D01*
X2568Y370D02*
X2611D01*
X2589Y348D02*
Y392D01*
X2568Y270D02*
X2611D01*
X2589Y248D02*
Y292D01*
X2568Y170D02*
X2611D01*
X2589Y148D02*
Y192D01*
X2568Y70D02*
X2611D01*
X2589Y48D02*
Y92D01*
X1882Y1305D02*
X1918D01*
X1900Y1287D02*
Y1323D01*
X1982Y1305D02*
X2018D01*
X2000Y1287D02*
Y1323D01*
X1982Y905D02*
X2018D01*
X2000Y887D02*
Y923D01*
X1882Y905D02*
X1918D01*
X1900Y887D02*
Y923D01*
X232Y1305D02*
X268D01*
X250Y1287D02*
Y1323D01*
X132Y1305D02*
X168D01*
X150Y1287D02*
Y1323D01*
X232Y905D02*
X268D01*
X250Y887D02*
Y923D01*
X132Y905D02*
X168D01*
X150Y887D02*
Y923D01*
X1290Y705D02*
X1330D01*
X1310Y685D02*
Y725D01*
X1390Y705D02*
X1430D01*
X1410Y685D02*
Y725D01*
X1490Y705D02*
X1530D01*
X1510Y685D02*
Y725D01*
X-88Y1245D02*
X-52D01*
X-70Y1227D02*
Y1263D01*
X-88Y1145D02*
X-52D01*
X-70Y1127D02*
Y1163D01*
X-88Y1045D02*
X-52D01*
X-70Y1027D02*
Y1063D01*
X-88Y945D02*
X-52D01*
X-70Y927D02*
Y963D01*
X-88Y845D02*
X-52D01*
X-70Y827D02*
Y863D01*
X-88Y745D02*
X-52D01*
X-70Y727D02*
Y763D01*
X-88Y645D02*
X-52D01*
X-70Y627D02*
Y663D01*
X-88Y545D02*
X-52D01*
X-70Y527D02*
Y563D01*
X-88Y445D02*
X-52D01*
X-70Y427D02*
Y463D01*
X-88Y345D02*
X-52D01*
X-70Y327D02*
Y363D01*
X-88Y245D02*
X-52D01*
X-70Y227D02*
Y263D01*
X-88Y145D02*
X-52D01*
X-70Y127D02*
Y163D01*
X117Y1105D02*
X153D01*
X135Y1087D02*
Y1123D01*
X217Y1105D02*
X253D01*
X235Y1087D02*
Y1123D01*
X317Y1105D02*
X353D01*
X335Y1087D02*
Y1123D01*
X417Y1105D02*
X453D01*
X435Y1087D02*
Y1123D01*
X117Y735D02*
X153D01*
X135Y717D02*
Y753D01*
X117Y635D02*
X153D01*
X135Y617D02*
Y653D01*
X117Y535D02*
X153D01*
X135Y517D02*
Y553D01*
X117Y435D02*
X153D01*
X135Y417D02*
Y453D01*
X252Y435D02*
X288D01*
X270Y417D02*
Y453D01*
X252Y535D02*
X288D01*
X270Y517D02*
Y553D01*
X252Y635D02*
X288D01*
X270Y617D02*
Y653D01*
X252Y735D02*
X288D01*
X270Y717D02*
Y753D01*
X2204Y1066D02*
X2214D01*
X2209Y1061D02*
Y1071D01*
X2243Y1066D02*
X2253D01*
X2248Y1061D02*
Y1071D01*
X2322Y1066D02*
X2332D01*
X2327Y1061D02*
Y1071D01*
X2361Y1067D02*
X2371D01*
X2366Y1062D02*
Y1072D01*
X2322Y1342D02*
X2332D01*
X2327Y1337D02*
Y1347D01*
X2361Y1342D02*
X2371D01*
X2366Y1337D02*
Y1347D01*
X2401Y1342D02*
X2411D01*
X2406Y1337D02*
Y1347D01*
X2282Y1343D02*
X2292D01*
X2287Y1338D02*
Y1348D01*
X2361Y563D02*
X2371D01*
X2366Y558D02*
Y568D01*
X2322Y562D02*
X2332D01*
X2327Y557D02*
Y567D01*
X2243Y562D02*
X2253D01*
X2248Y557D02*
Y567D01*
X2204Y562D02*
X2214D01*
X2209Y557D02*
Y567D01*
X2282Y841D02*
X2292D01*
X2287Y836D02*
Y846D01*
X2401Y840D02*
X2411D01*
X2406Y835D02*
Y845D01*
X2361Y840D02*
X2371D01*
X2366Y835D02*
Y845D01*
X2322Y840D02*
X2332D01*
X2327Y835D02*
Y845D01*
X2322Y336D02*
X2332D01*
X2327Y331D02*
Y341D01*
X2361Y336D02*
X2371D01*
X2366Y331D02*
Y341D01*
X2401Y336D02*
X2411D01*
X2406Y331D02*
Y341D01*
X2282Y337D02*
X2292D01*
X2287Y332D02*
Y342D01*
X2204Y59D02*
X2214D01*
X2209Y54D02*
Y64D01*
X2243Y59D02*
X2253D01*
X2248Y54D02*
Y64D01*
X2322Y59D02*
X2332D01*
X2327Y54D02*
Y64D01*
X2361Y60D02*
X2371D01*
X2366Y55D02*
Y65D01*
M02*
