%FSLAX23Y23*%
%MOIN*%
G70*
G01*
G75*
G04 Layer_Physical_Order=1*
G04 Layer_Color=255*
%ADD10R,0.020X0.055*%
%ADD11R,0.037X0.067*%
%ADD12R,0.051X0.033*%
%ADD13R,0.132X0.213*%
%ADD14R,0.079X0.087*%
%ADD15C,0.025*%
%ADD16C,0.020*%
%ADD17C,0.015*%
%ADD18C,0.010*%
%ADD19C,0.005*%
%ADD20O,0.043X0.142*%
%ADD21C,0.063*%
%ADD22R,0.063X0.063*%
%ADD23P,0.128X8X112.5*%
%ADD24P,0.128X8X202.5*%
%ADD25C,0.081*%
%ADD26C,0.060*%
%ADD27C,0.059*%
%ADD28R,0.059X0.059*%
%ADD29R,0.059X0.059*%
%ADD30C,0.016*%
G36*
X2126Y25D02*
X33D01*
X31Y30D01*
X31Y30D01*
Y1370D01*
X336D01*
X341Y1365D01*
Y1310D01*
Y1305D01*
X595Y1050D01*
X1553D01*
X1807Y1305D01*
Y1375D01*
X2126D01*
Y25D01*
D02*
G37*
G36*
X-485Y40D02*
X-675D01*
Y100D01*
Y145D01*
Y185D01*
Y201D01*
Y202D01*
Y245D01*
Y288D01*
Y301D01*
Y302D01*
Y345D01*
Y388D01*
Y401D01*
Y402D01*
Y445D01*
Y488D01*
Y501D01*
Y502D01*
Y545D01*
Y588D01*
Y601D01*
Y602D01*
Y645D01*
Y688D01*
Y701D01*
Y702D01*
Y745D01*
Y788D01*
Y801D01*
Y802D01*
Y845D01*
Y888D01*
Y901D01*
Y902D01*
Y945D01*
Y988D01*
Y1001D01*
Y1002D01*
Y1045D01*
Y1088D01*
Y1101D01*
Y1102D01*
Y1145D01*
Y1188D01*
Y1201D01*
Y1202D01*
Y1245D01*
Y1288D01*
Y1350D01*
X-485D01*
Y40D01*
D02*
G37*
%LPC*%
G36*
X2070Y452D02*
X2041D01*
Y388D01*
X2105D01*
Y418D01*
X2070Y452D01*
D02*
G37*
G36*
X2031D02*
X2001D01*
X1967Y418D01*
Y388D01*
X2031D01*
Y452D01*
D02*
G37*
G36*
X816Y433D02*
X772D01*
Y385D01*
X816D01*
Y433D01*
D02*
G37*
G36*
X135Y470D02*
X126Y469D01*
X118Y465D01*
X110Y460D01*
X105Y452D01*
X101Y444D01*
X100Y435D01*
X101Y426D01*
X105Y418D01*
X110Y410D01*
X118Y405D01*
X126Y401D01*
X135Y400D01*
X144Y401D01*
X152Y405D01*
X160Y410D01*
X165Y418D01*
X169Y426D01*
X170Y435D01*
X169Y444D01*
X165Y452D01*
X160Y460D01*
X152Y465D01*
X144Y469D01*
X135Y470D01*
D02*
G37*
G36*
X305Y470D02*
X235D01*
Y400D01*
X305D01*
Y470D01*
D02*
G37*
G36*
X-543Y433D02*
X-567D01*
Y394D01*
X-543D01*
Y433D01*
D02*
G37*
G36*
X-509D02*
X-533D01*
Y394D01*
X-509D01*
Y433D01*
D02*
G37*
G36*
X762Y433D02*
X718D01*
Y385D01*
X762D01*
Y433D01*
D02*
G37*
G36*
X816Y375D02*
X772D01*
Y327D01*
X816D01*
Y375D01*
D02*
G37*
G36*
X-665Y384D02*
Y350D01*
X-631D01*
X-631Y355D01*
X-635Y365D01*
X-642Y373D01*
X-650Y380D01*
X-660Y384D01*
X-665Y384D01*
D02*
G37*
G36*
X425Y660D02*
X416Y659D01*
X407Y656D01*
X400Y650D01*
X394Y643D01*
X391Y634D01*
X390Y625D01*
X391Y616D01*
X394Y607D01*
X400Y600D01*
X407Y594D01*
X412Y592D01*
Y405D01*
X345Y338D01*
X190D01*
X185Y337D01*
X181Y334D01*
X146Y299D01*
X143Y295D01*
X142Y290D01*
Y184D01*
X137Y182D01*
X129Y176D01*
X123Y168D01*
X119Y160D01*
X118Y150D01*
X119Y140D01*
X123Y132D01*
X129Y124D01*
X137Y118D01*
X145Y114D01*
X155Y113D01*
X165Y114D01*
X173Y118D01*
X181Y124D01*
X187Y132D01*
X191Y140D01*
X192Y150D01*
X191Y160D01*
X187Y168D01*
X181Y176D01*
X173Y182D01*
X168Y184D01*
Y285D01*
X195Y312D01*
X350D01*
X355Y313D01*
X359Y316D01*
X359Y316D01*
X359Y316D01*
X434Y391D01*
X437Y395D01*
X438Y400D01*
X438Y400D01*
X438Y400D01*
Y400D01*
Y592D01*
X443Y594D01*
X450Y600D01*
X456Y607D01*
X459Y616D01*
X460Y625D01*
X459Y634D01*
X456Y643D01*
X450Y650D01*
X443Y656D01*
X434Y659D01*
X425Y660D01*
D02*
G37*
G36*
X762Y375D02*
X718D01*
Y327D01*
X762D01*
Y375D01*
D02*
G37*
G36*
X1137Y405D02*
X1093D01*
Y357D01*
X1137D01*
Y405D01*
D02*
G37*
G36*
X1191D02*
X1147D01*
Y357D01*
X1191D01*
Y405D01*
D02*
G37*
G36*
X515Y393D02*
X491D01*
Y355D01*
X515D01*
Y393D01*
D02*
G37*
G36*
X549D02*
X525D01*
Y355D01*
X549D01*
Y393D01*
D02*
G37*
G36*
X270Y570D02*
X261Y569D01*
X253Y565D01*
X245Y560D01*
X240Y552D01*
X236Y544D01*
X235Y535D01*
X236Y526D01*
X240Y518D01*
X245Y510D01*
X253Y505D01*
X261Y501D01*
X270Y500D01*
X279Y501D01*
X287Y505D01*
X295Y510D01*
X300Y518D01*
X304Y526D01*
X305Y535D01*
X304Y544D01*
X300Y552D01*
X295Y560D01*
X287Y565D01*
X279Y569D01*
X270Y570D01*
D02*
G37*
G36*
X740Y574D02*
X731Y573D01*
X723Y569D01*
X715Y564D01*
X710Y556D01*
X708Y552D01*
X669D01*
X664Y551D01*
X660Y548D01*
X645Y533D01*
X606D01*
Y457D01*
X619D01*
Y388D01*
X606D01*
Y312D01*
X619D01*
Y273D01*
X617D01*
Y208D01*
X645D01*
X645Y208D01*
Y208D01*
X647Y208D01*
X648D01*
X649D01*
X650Y208D01*
X650Y208D01*
Y208D01*
X677D01*
X677Y208D01*
Y208D01*
X678Y208D01*
X679D01*
X680D01*
X682Y208D01*
X682Y208D01*
Y208D01*
X708D01*
X708Y208D01*
Y208D01*
X710Y208D01*
X711D01*
X712D01*
X713Y208D01*
X713Y208D01*
Y208D01*
X738D01*
Y203D01*
X753D01*
Y240D01*
Y278D01*
X738D01*
Y273D01*
X713D01*
X713Y273D01*
Y273D01*
X712Y273D01*
X711D01*
X710D01*
X708Y273D01*
X708Y273D01*
Y273D01*
X682D01*
X682Y273D01*
Y273D01*
X680Y273D01*
X679D01*
X678D01*
X677Y273D01*
X677Y273D01*
Y273D01*
X650D01*
X650Y273D01*
Y273D01*
X649Y273D01*
X648D01*
X647D01*
X647D01*
X645Y273D01*
X645Y273D01*
Y273D01*
X645D01*
Y312D01*
X654D01*
Y388D01*
X645D01*
Y457D01*
X654D01*
Y506D01*
X674Y526D01*
X708D01*
X710Y522D01*
X715Y514D01*
X723Y509D01*
X731Y505D01*
X740Y504D01*
X749Y505D01*
X757Y509D01*
X765Y514D01*
X770Y522D01*
X774Y530D01*
X775Y539D01*
X774Y548D01*
X770Y556D01*
X765Y564D01*
X757Y569D01*
X749Y573D01*
X740Y574D01*
D02*
G37*
G36*
X549Y538D02*
X525D01*
Y500D01*
X549D01*
Y538D01*
D02*
G37*
G36*
X135Y570D02*
X126Y569D01*
X118Y565D01*
X110Y560D01*
X105Y552D01*
X101Y544D01*
X100Y535D01*
X101Y526D01*
X105Y518D01*
X110Y510D01*
X118Y505D01*
X126Y501D01*
X135Y500D01*
X144Y501D01*
X152Y505D01*
X160Y510D01*
X165Y518D01*
X169Y526D01*
X170Y535D01*
X169Y544D01*
X165Y552D01*
X160Y560D01*
X152Y565D01*
X144Y569D01*
X135Y570D01*
D02*
G37*
G36*
X1410Y742D02*
X1400Y741D01*
X1392Y737D01*
X1384Y731D01*
X1378Y723D01*
X1374Y715D01*
X1373Y705D01*
X1374Y695D01*
X1378Y687D01*
X1384Y679D01*
X1392Y673D01*
X1392Y673D01*
Y657D01*
X1278Y543D01*
X1055D01*
X1055Y543D01*
X1048Y541D01*
X1045Y540D01*
X1042Y538D01*
X1042Y538D01*
X1022Y518D01*
X1019Y512D01*
X1017Y505D01*
Y412D01*
X1003Y398D01*
X937D01*
Y428D01*
X911D01*
Y485D01*
X931Y505D01*
X975D01*
Y574D01*
X905D01*
Y530D01*
X880Y505D01*
X877Y499D01*
X875Y492D01*
Y428D01*
X849D01*
Y332D01*
X937D01*
Y362D01*
X1010D01*
X1017Y364D01*
X1023Y367D01*
X1048Y392D01*
X1048Y392D01*
X1051Y398D01*
X1053Y405D01*
Y498D01*
X1062Y507D01*
X1285D01*
X1292Y509D01*
X1298Y512D01*
X1423Y637D01*
X1426Y643D01*
X1428Y650D01*
X1428Y650D01*
Y673D01*
X1428Y673D01*
X1436Y679D01*
X1442Y687D01*
X1446Y695D01*
X1447Y705D01*
X1446Y715D01*
X1442Y723D01*
X1436Y731D01*
X1428Y737D01*
X1420Y741D01*
X1410Y742D01*
D02*
G37*
G36*
X-665Y584D02*
Y550D01*
X-631D01*
X-631Y555D01*
X-635Y565D01*
X-642Y573D01*
X-650Y580D01*
X-660Y584D01*
X-665Y584D01*
D02*
G37*
G36*
X-631Y540D02*
X-665D01*
Y506D01*
X-660Y506D01*
X-650Y510D01*
X-642Y517D01*
X-635Y525D01*
X-631Y535D01*
X-631Y540D01*
D02*
G37*
G36*
X1871Y573D02*
X1807D01*
X1775Y541D01*
Y535D01*
X1537D01*
X1537Y535D01*
X1530Y533D01*
X1524Y529D01*
X1524Y529D01*
X1449Y454D01*
X1445Y448D01*
X1444Y441D01*
Y311D01*
X1390D01*
Y89D01*
X1532D01*
Y311D01*
X1479D01*
Y434D01*
X1544Y499D01*
X1775D01*
Y477D01*
X1807Y445D01*
X1871D01*
X1903Y477D01*
Y541D01*
X1871Y573D01*
D02*
G37*
G36*
X515Y538D02*
X491D01*
Y500D01*
X515D01*
Y538D01*
D02*
G37*
G36*
X1191Y463D02*
X1147D01*
Y415D01*
X1191D01*
Y463D01*
D02*
G37*
G36*
X-543Y481D02*
X-567D01*
Y443D01*
X-543D01*
Y481D01*
D02*
G37*
G36*
X-631Y440D02*
X-665D01*
Y406D01*
X-660Y406D01*
X-650Y410D01*
X-642Y417D01*
X-635Y425D01*
X-631Y435D01*
X-631Y440D01*
D02*
G37*
G36*
X1137Y463D02*
X1093D01*
Y415D01*
X1137D01*
Y463D01*
D02*
G37*
G36*
X515Y490D02*
X491D01*
Y452D01*
X515D01*
Y490D01*
D02*
G37*
G36*
X549D02*
X525D01*
Y452D01*
X549D01*
Y490D01*
D02*
G37*
G36*
X-509Y481D02*
X-533D01*
Y443D01*
X-509D01*
Y481D01*
D02*
G37*
G36*
X-665Y484D02*
Y450D01*
X-631D01*
X-631Y455D01*
X-635Y465D01*
X-642Y473D01*
X-650Y480D01*
X-660Y484D01*
X-665Y484D01*
D02*
G37*
G36*
X2105Y378D02*
X2041D01*
Y314D01*
X2070D01*
X2105Y349D01*
Y378D01*
D02*
G37*
G36*
X255Y187D02*
X245Y186D01*
X237Y182D01*
X229Y176D01*
X223Y168D01*
X219Y160D01*
X218Y150D01*
X219Y140D01*
X223Y132D01*
X229Y124D01*
X237Y118D01*
X245Y114D01*
X255Y113D01*
X265Y114D01*
X273Y118D01*
X281Y124D01*
X287Y132D01*
X291Y140D01*
X292Y150D01*
X291Y160D01*
X287Y168D01*
X281Y176D01*
X273Y182D01*
X265Y186D01*
X255Y187D01*
D02*
G37*
G36*
X391Y186D02*
X319D01*
Y114D01*
X391D01*
Y186D01*
D02*
G37*
G36*
X-509Y138D02*
X-533D01*
Y100D01*
X-509D01*
Y138D01*
D02*
G37*
G36*
X-630Y140D02*
X-665D01*
Y105D01*
X-630D01*
Y140D01*
D02*
G37*
G36*
X556Y226D02*
Y151D01*
X583D01*
Y195D01*
X582Y203D01*
X579Y211D01*
X574Y217D01*
X567Y223D01*
X560Y226D01*
X556Y226D01*
D02*
G37*
G36*
X834D02*
X830Y226D01*
X823Y223D01*
X816Y217D01*
X811Y211D01*
X808Y203D01*
X807Y195D01*
Y151D01*
X834D01*
Y226D01*
D02*
G37*
G36*
X-630Y185D02*
X-665D01*
Y150D01*
X-630D01*
Y185D01*
D02*
G37*
G36*
X546Y226D02*
X543Y226D01*
X535Y223D01*
X529Y217D01*
X524Y211D01*
X520Y203D01*
X519Y195D01*
Y151D01*
X546D01*
Y226D01*
D02*
G37*
G36*
Y141D02*
X519D01*
Y96D01*
X520Y88D01*
X524Y80D01*
X529Y74D01*
X535Y69D01*
X543Y66D01*
X546Y65D01*
Y141D01*
D02*
G37*
G36*
X583D02*
X556D01*
Y65D01*
X560Y66D01*
X567Y69D01*
X574Y74D01*
X579Y80D01*
X582Y88D01*
X583Y96D01*
Y141D01*
D02*
G37*
G36*
X-543Y90D02*
X-567D01*
Y52D01*
X-543D01*
Y90D01*
D02*
G37*
G36*
X-509D02*
X-533D01*
Y52D01*
X-509D01*
Y90D01*
D02*
G37*
G36*
X1510Y742D02*
X1500Y741D01*
X1492Y737D01*
X1484Y731D01*
X1478Y723D01*
X1474Y715D01*
X1473Y705D01*
X1474Y695D01*
X1478Y687D01*
X1484Y679D01*
X1492Y673D01*
X1492Y673D01*
Y659D01*
X1291Y458D01*
X1224D01*
Y362D01*
X1241D01*
Y311D01*
X1188D01*
Y89D01*
X1330D01*
Y311D01*
X1276D01*
Y362D01*
X1312D01*
Y429D01*
X1523Y639D01*
X1526Y645D01*
X1528Y652D01*
X1528Y652D01*
Y673D01*
X1528Y673D01*
X1536Y679D01*
X1542Y687D01*
X1546Y695D01*
X1547Y705D01*
X1546Y715D01*
X1542Y723D01*
X1536Y731D01*
X1528Y737D01*
X1520Y741D01*
X1510Y742D01*
D02*
G37*
G36*
X-543Y138D02*
X-567D01*
Y100D01*
X-543D01*
Y138D01*
D02*
G37*
G36*
X834Y141D02*
X807D01*
Y96D01*
X808Y88D01*
X811Y80D01*
X816Y74D01*
X823Y69D01*
X830Y66D01*
X834Y65D01*
Y141D01*
D02*
G37*
G36*
X871D02*
X844D01*
Y65D01*
X847Y66D01*
X855Y69D01*
X861Y74D01*
X866Y80D01*
X870Y88D01*
X871Y96D01*
Y141D01*
D02*
G37*
G36*
X844Y226D02*
Y151D01*
X871D01*
Y195D01*
X870Y203D01*
X866Y211D01*
X861Y217D01*
X855Y223D01*
X847Y226D01*
X844Y226D01*
D02*
G37*
G36*
X-543Y310D02*
X-567D01*
Y271D01*
X-543D01*
Y310D01*
D02*
G37*
G36*
X-509D02*
X-533D01*
Y271D01*
X-509D01*
Y310D01*
D02*
G37*
G36*
X1834Y334D02*
X1804D01*
X1770Y300D01*
Y270D01*
X1834D01*
Y334D01*
D02*
G37*
G36*
X1874D02*
X1844D01*
Y270D01*
X1908D01*
Y300D01*
X1874Y334D01*
D02*
G37*
G36*
X549Y345D02*
X525D01*
Y307D01*
X549D01*
Y345D01*
D02*
G37*
G36*
X2031Y378D02*
X1967D01*
Y349D01*
X2001Y314D01*
X2031D01*
Y378D01*
D02*
G37*
G36*
X-631Y340D02*
X-665D01*
Y306D01*
X-660Y306D01*
X-650Y310D01*
X-642Y317D01*
X-635Y325D01*
X-631Y335D01*
X-631Y340D01*
D02*
G37*
G36*
X515Y345D02*
X491D01*
Y307D01*
X515D01*
Y345D01*
D02*
G37*
G36*
X778Y235D02*
X763D01*
Y203D01*
X778D01*
Y235D01*
D02*
G37*
G36*
X-631Y240D02*
X-665D01*
Y206D01*
X-660Y206D01*
X-650Y210D01*
X-642Y217D01*
X-635Y225D01*
X-631Y235D01*
X-631Y240D01*
D02*
G37*
G36*
X1834Y260D02*
X1770D01*
Y230D01*
X1804Y196D01*
X1834D01*
Y260D01*
D02*
G37*
G36*
X1908D02*
X1844D01*
Y196D01*
X1874D01*
X1908Y230D01*
Y260D01*
D02*
G37*
G36*
X778Y278D02*
X763D01*
Y245D01*
X778D01*
Y278D01*
D02*
G37*
G36*
X-665Y284D02*
Y250D01*
X-631D01*
X-631Y255D01*
X-635Y265D01*
X-642Y273D01*
X-650Y280D01*
X-660Y284D01*
X-665Y284D01*
D02*
G37*
G36*
X-543Y261D02*
X-567D01*
Y223D01*
X-543D01*
Y261D01*
D02*
G37*
G36*
X-509D02*
X-533D01*
Y223D01*
X-509D01*
Y261D01*
D02*
G37*
G36*
X150Y1340D02*
X141Y1339D01*
X132Y1336D01*
X125Y1330D01*
X119Y1323D01*
X116Y1314D01*
X115Y1305D01*
X116Y1296D01*
X119Y1287D01*
X125Y1280D01*
X132Y1274D01*
X135Y1273D01*
Y1190D01*
X136Y1184D01*
X139Y1179D01*
X202Y1116D01*
X201Y1114D01*
X200Y1105D01*
X201Y1096D01*
X202Y1094D01*
X139Y1031D01*
X136Y1026D01*
X135Y1020D01*
Y937D01*
X132Y936D01*
X125Y930D01*
X119Y923D01*
X116Y914D01*
X115Y905D01*
X116Y896D01*
X119Y887D01*
X125Y880D01*
X132Y874D01*
X141Y871D01*
X150Y870D01*
X159Y871D01*
X168Y874D01*
X175Y880D01*
X181Y887D01*
X184Y896D01*
X185Y905D01*
X184Y914D01*
X181Y923D01*
X175Y930D01*
X168Y936D01*
X165Y937D01*
Y1014D01*
X224Y1072D01*
X226Y1071D01*
X235Y1070D01*
X244Y1071D01*
X252Y1075D01*
X260Y1080D01*
X265Y1088D01*
X266Y1090D01*
X304D01*
X305Y1088D01*
X310Y1080D01*
X318Y1075D01*
X326Y1071D01*
X335Y1070D01*
X344Y1071D01*
X352Y1075D01*
X360Y1080D01*
X365Y1088D01*
X369Y1096D01*
X370Y1105D01*
X369Y1114D01*
X365Y1122D01*
X360Y1130D01*
X352Y1135D01*
X344Y1139D01*
X335Y1140D01*
X326Y1139D01*
X318Y1135D01*
X310Y1130D01*
X305Y1122D01*
X304Y1120D01*
X266D01*
X265Y1122D01*
X260Y1130D01*
X252Y1135D01*
X244Y1139D01*
X235Y1140D01*
X226Y1139D01*
X224Y1138D01*
X165Y1196D01*
Y1273D01*
X168Y1274D01*
X175Y1280D01*
X181Y1287D01*
X184Y1296D01*
X185Y1305D01*
X184Y1314D01*
X181Y1323D01*
X175Y1330D01*
X168Y1336D01*
X159Y1339D01*
X150Y1340D01*
D02*
G37*
G36*
X1715Y1140D02*
X1706Y1139D01*
X1698Y1135D01*
X1690Y1130D01*
X1685Y1122D01*
X1681Y1114D01*
X1680Y1105D01*
X1681Y1096D01*
X1685Y1088D01*
X1690Y1080D01*
X1698Y1075D01*
X1706Y1071D01*
X1715Y1070D01*
X1724Y1071D01*
X1732Y1075D01*
X1740Y1080D01*
X1745Y1088D01*
X1749Y1096D01*
X1750Y1105D01*
X1749Y1114D01*
X1745Y1122D01*
X1740Y1130D01*
X1732Y1135D01*
X1724Y1139D01*
X1715Y1140D01*
D02*
G37*
G36*
X-665Y1084D02*
Y1050D01*
X-631D01*
X-631Y1055D01*
X-635Y1065D01*
X-642Y1073D01*
X-650Y1080D01*
X-660Y1084D01*
X-665Y1084D01*
D02*
G37*
G36*
X135Y1140D02*
X126Y1139D01*
X118Y1135D01*
X110Y1130D01*
X105Y1122D01*
X101Y1114D01*
X100Y1105D01*
X101Y1096D01*
X105Y1088D01*
X110Y1080D01*
X118Y1075D01*
X126Y1071D01*
X135Y1070D01*
X144Y1071D01*
X152Y1075D01*
X160Y1080D01*
X165Y1088D01*
X169Y1096D01*
X170Y1105D01*
X169Y1114D01*
X165Y1122D01*
X160Y1130D01*
X152Y1135D01*
X144Y1139D01*
X135Y1140D01*
D02*
G37*
G36*
X-631Y1140D02*
X-665D01*
Y1106D01*
X-660Y1106D01*
X-650Y1110D01*
X-642Y1117D01*
X-635Y1125D01*
X-631Y1135D01*
X-631Y1140D01*
D02*
G37*
G36*
X-543Y1167D02*
X-567D01*
Y1129D01*
X-543D01*
Y1167D01*
D02*
G37*
G36*
Y1119D02*
X-567D01*
Y1080D01*
X-543D01*
Y1119D01*
D02*
G37*
G36*
X-509D02*
X-533D01*
Y1080D01*
X-509D01*
Y1119D01*
D02*
G37*
G36*
X-631Y1040D02*
X-665D01*
Y1006D01*
X-660Y1006D01*
X-650Y1010D01*
X-642Y1017D01*
X-635Y1025D01*
X-631Y1035D01*
X-631Y1040D01*
D02*
G37*
G36*
X1995Y945D02*
X1990Y944D01*
X1980Y940D01*
X1971Y934D01*
X1965Y925D01*
X1961Y915D01*
X1960Y910D01*
X1995D01*
Y945D01*
D02*
G37*
G36*
X2005D02*
Y910D01*
X2040D01*
X2039Y915D01*
X2035Y925D01*
X2029Y934D01*
X2020Y940D01*
X2010Y944D01*
X2005Y945D01*
D02*
G37*
G36*
X245D02*
X240Y944D01*
X230Y940D01*
X221Y934D01*
X215Y925D01*
X211Y915D01*
X210Y910D01*
X245D01*
Y945D01*
D02*
G37*
G36*
X255D02*
Y910D01*
X290D01*
X289Y915D01*
X285Y925D01*
X279Y934D01*
X270Y940D01*
X260Y944D01*
X255Y945D01*
D02*
G37*
G36*
X-543Y996D02*
X-567D01*
Y957D01*
X-543D01*
Y996D01*
D02*
G37*
G36*
X-509D02*
X-533D01*
Y957D01*
X-509D01*
Y996D01*
D02*
G37*
G36*
X-665Y984D02*
Y950D01*
X-631D01*
X-631Y955D01*
X-635Y965D01*
X-642Y973D01*
X-650Y980D01*
X-660Y984D01*
X-665Y984D01*
D02*
G37*
G36*
X2050Y1140D02*
X1980D01*
Y1091D01*
X1903Y1013D01*
X1855D01*
X1848Y1011D01*
X1842Y1008D01*
X1788Y953D01*
X443D01*
Y1070D01*
X470D01*
Y1140D01*
X400D01*
Y1070D01*
X407D01*
Y935D01*
Y755D01*
X400Y750D01*
X394Y743D01*
X391Y734D01*
X390Y725D01*
X391Y716D01*
X394Y707D01*
X400Y700D01*
X407Y694D01*
X416Y691D01*
X425Y690D01*
X434Y691D01*
X443Y694D01*
X450Y700D01*
X455Y707D01*
X538D01*
X540Y702D01*
X547Y693D01*
X557Y685D01*
X568Y681D01*
X579Y679D01*
X591Y681D01*
X602Y685D01*
X612Y693D01*
X619Y702D01*
X624Y713D01*
X625Y725D01*
X624Y737D01*
X619Y748D01*
X612Y757D01*
X602Y765D01*
X591Y769D01*
X579Y771D01*
X568Y769D01*
X557Y765D01*
X547Y757D01*
X540Y748D01*
X538Y743D01*
X455D01*
X450Y750D01*
X443Y755D01*
Y917D01*
X1795D01*
X1802Y919D01*
X1808Y922D01*
X1862Y977D01*
X1910D01*
X1917Y979D01*
X1923Y982D01*
X2011Y1070D01*
X2050D01*
Y1140D01*
D02*
G37*
G36*
X-543Y1338D02*
X-567D01*
Y1300D01*
X-543D01*
Y1338D01*
D02*
G37*
G36*
X-509D02*
X-533D01*
Y1300D01*
X-509D01*
Y1338D01*
D02*
G37*
G36*
X1895Y1300D02*
X1860D01*
X1861Y1295D01*
X1865Y1285D01*
X1871Y1276D01*
X1880Y1270D01*
X1890Y1266D01*
X1895Y1265D01*
Y1300D01*
D02*
G37*
G36*
X1940D02*
X1905D01*
Y1265D01*
X1910Y1266D01*
X1920Y1270D01*
X1929Y1276D01*
X1935Y1285D01*
X1939Y1295D01*
X1940Y1300D01*
D02*
G37*
G36*
X1895Y1345D02*
X1890Y1344D01*
X1880Y1340D01*
X1871Y1334D01*
X1865Y1325D01*
X1861Y1315D01*
X1860Y1310D01*
X1895D01*
Y1345D01*
D02*
G37*
G36*
X1905D02*
Y1310D01*
X1940D01*
X1939Y1315D01*
X1935Y1325D01*
X1929Y1334D01*
X1920Y1340D01*
X1910Y1344D01*
X1905Y1345D01*
D02*
G37*
G36*
X245D02*
X240Y1344D01*
X230Y1340D01*
X221Y1334D01*
X215Y1325D01*
X211Y1315D01*
X210Y1310D01*
X245D01*
Y1345D01*
D02*
G37*
G36*
X255D02*
Y1310D01*
X290D01*
X289Y1315D01*
X285Y1325D01*
X279Y1334D01*
X270Y1340D01*
X260Y1344D01*
X255Y1345D01*
D02*
G37*
G36*
X290Y1300D02*
X255D01*
Y1265D01*
X260Y1266D01*
X270Y1270D01*
X279Y1276D01*
X285Y1285D01*
X289Y1295D01*
X290Y1300D01*
D02*
G37*
G36*
X-631Y1240D02*
X-665D01*
Y1206D01*
X-660Y1206D01*
X-650Y1210D01*
X-642Y1217D01*
X-635Y1225D01*
X-631Y1235D01*
X-631Y1240D01*
D02*
G37*
G36*
X2000Y1340D02*
X1991Y1339D01*
X1982Y1336D01*
X1975Y1330D01*
X1969Y1323D01*
X1966Y1314D01*
X1965Y1305D01*
X1966Y1296D01*
X1969Y1287D01*
X1975Y1280D01*
X1982Y1275D01*
Y1222D01*
X1902Y1143D01*
X1899Y1137D01*
X1898Y1135D01*
X1898Y1135D01*
X1890Y1130D01*
X1885Y1123D01*
X1845D01*
X1840Y1130D01*
X1832Y1135D01*
X1824Y1139D01*
X1815Y1140D01*
X1806Y1139D01*
X1798Y1135D01*
X1790Y1130D01*
X1785Y1122D01*
X1781Y1114D01*
X1780Y1105D01*
X1781Y1096D01*
X1785Y1088D01*
X1790Y1080D01*
X1798Y1075D01*
X1806Y1071D01*
X1815Y1070D01*
X1824Y1071D01*
X1832Y1075D01*
X1840Y1080D01*
X1845Y1087D01*
X1885D01*
X1890Y1080D01*
X1898Y1075D01*
X1906Y1071D01*
X1915Y1070D01*
X1924Y1071D01*
X1932Y1075D01*
X1940Y1080D01*
X1945Y1088D01*
X1949Y1096D01*
X1950Y1105D01*
X1949Y1114D01*
X1945Y1122D01*
X1940Y1129D01*
X2013Y1202D01*
X2013Y1202D01*
X2016Y1208D01*
X2016Y1208D01*
X2016Y1208D01*
X2018Y1215D01*
X2018Y1215D01*
Y1275D01*
X2025Y1280D01*
X2031Y1287D01*
X2034Y1296D01*
X2035Y1305D01*
X2034Y1314D01*
X2031Y1323D01*
X2025Y1330D01*
X2018Y1336D01*
X2009Y1339D01*
X2000Y1340D01*
D02*
G37*
G36*
X-509Y1167D02*
X-533D01*
Y1129D01*
X-509D01*
Y1167D01*
D02*
G37*
G36*
X-665Y1184D02*
Y1150D01*
X-631D01*
X-631Y1155D01*
X-635Y1165D01*
X-642Y1173D01*
X-650Y1180D01*
X-660Y1184D01*
X-665Y1184D01*
D02*
G37*
G36*
X-509Y1290D02*
X-533D01*
Y1252D01*
X-509D01*
Y1290D01*
D02*
G37*
G36*
X245Y1300D02*
X210D01*
X211Y1295D01*
X215Y1285D01*
X221Y1276D01*
X230Y1270D01*
X240Y1266D01*
X245Y1265D01*
Y1300D01*
D02*
G37*
G36*
X-665Y1284D02*
Y1250D01*
X-631D01*
X-631Y1255D01*
X-635Y1265D01*
X-642Y1273D01*
X-650Y1280D01*
X-660Y1284D01*
X-665Y1284D01*
D02*
G37*
G36*
X-543Y1290D02*
X-567D01*
Y1252D01*
X-543D01*
Y1290D01*
D02*
G37*
G36*
X265Y730D02*
X231D01*
X231Y725D01*
X235Y715D01*
X242Y707D01*
X250Y700D01*
X260Y696D01*
X265Y696D01*
Y730D01*
D02*
G37*
G36*
X309D02*
X275D01*
Y696D01*
X280Y696D01*
X290Y700D01*
X298Y707D01*
X305Y715D01*
X309Y725D01*
X309Y730D01*
D02*
G37*
G36*
X1351Y700D02*
X1315D01*
Y664D01*
X1351D01*
Y700D01*
D02*
G37*
G36*
X1111Y771D02*
X1099Y769D01*
X1088Y765D01*
X1078Y757D01*
X1071Y748D01*
X1069Y743D01*
X885D01*
X878Y741D01*
X872Y738D01*
X872Y738D01*
X827Y693D01*
X824Y687D01*
X822Y680D01*
Y569D01*
X815Y564D01*
X810Y556D01*
X806Y548D01*
X805Y539D01*
X806Y530D01*
X810Y522D01*
X815Y514D01*
X823Y509D01*
X831Y505D01*
X840Y504D01*
X849Y505D01*
X857Y509D01*
X865Y514D01*
X870Y522D01*
X874Y530D01*
X875Y539D01*
X874Y548D01*
X870Y556D01*
X865Y564D01*
X858Y569D01*
Y673D01*
X892Y707D01*
X1069D01*
X1071Y702D01*
X1078Y693D01*
X1088Y685D01*
X1099Y681D01*
X1111Y679D01*
X1122Y681D01*
X1133Y685D01*
X1143Y693D01*
X1150Y702D01*
X1155Y713D01*
X1156Y725D01*
X1155Y737D01*
X1150Y748D01*
X1143Y757D01*
X1133Y765D01*
X1122Y769D01*
X1111Y771D01*
D02*
G37*
G36*
X1305Y746D02*
X1269D01*
Y710D01*
X1305D01*
Y746D01*
D02*
G37*
G36*
X1351D02*
X1315D01*
Y710D01*
X1351D01*
Y746D01*
D02*
G37*
G36*
X170Y770D02*
X100D01*
Y700D01*
X170D01*
Y770D01*
D02*
G37*
G36*
X-631Y740D02*
X-665D01*
Y706D01*
X-660Y706D01*
X-650Y710D01*
X-642Y717D01*
X-635Y725D01*
X-631Y735D01*
X-631Y740D01*
D02*
G37*
G36*
X1305Y700D02*
X1269D01*
Y664D01*
X1305D01*
Y700D01*
D02*
G37*
G36*
X135Y670D02*
X126Y669D01*
X118Y665D01*
X110Y660D01*
X105Y652D01*
X101Y644D01*
X100Y635D01*
X101Y626D01*
X105Y618D01*
X110Y610D01*
X118Y605D01*
X126Y601D01*
X135Y600D01*
X144Y601D01*
X152Y605D01*
X160Y610D01*
X165Y618D01*
X169Y626D01*
X170Y635D01*
X169Y644D01*
X165Y652D01*
X160Y660D01*
X152Y665D01*
X144Y669D01*
X135Y670D01*
D02*
G37*
G36*
X270D02*
X261Y669D01*
X253Y665D01*
X245Y660D01*
X240Y652D01*
X236Y644D01*
X235Y635D01*
X236Y626D01*
X240Y618D01*
X245Y610D01*
X253Y605D01*
X261Y601D01*
X270Y600D01*
X279Y601D01*
X287Y605D01*
X295Y610D01*
X300Y618D01*
X304Y626D01*
X305Y635D01*
X304Y644D01*
X300Y652D01*
X295Y660D01*
X287Y665D01*
X279Y669D01*
X270Y670D01*
D02*
G37*
G36*
X-543Y604D02*
X-567D01*
Y566D01*
X-543D01*
Y604D01*
D02*
G37*
G36*
X-509D02*
X-533D01*
Y566D01*
X-509D01*
Y604D01*
D02*
G37*
G36*
Y653D02*
X-533D01*
Y614D01*
X-509D01*
Y653D01*
D02*
G37*
G36*
X-665Y684D02*
Y650D01*
X-631D01*
X-631Y655D01*
X-635Y665D01*
X-642Y673D01*
X-650Y680D01*
X-660Y684D01*
X-665Y684D01*
D02*
G37*
G36*
X-631Y640D02*
X-665D01*
Y606D01*
X-660Y606D01*
X-650Y610D01*
X-642Y617D01*
X-635Y625D01*
X-631Y635D01*
X-631Y640D01*
D02*
G37*
G36*
X-543Y653D02*
X-567D01*
Y614D01*
X-543D01*
Y653D01*
D02*
G37*
G36*
X1995Y900D02*
X1960D01*
X1961Y895D01*
X1965Y885D01*
X1971Y876D01*
X1980Y870D01*
X1990Y866D01*
X1995Y865D01*
Y900D01*
D02*
G37*
G36*
X2040D02*
X2005D01*
Y865D01*
X2010Y866D01*
X2020Y870D01*
X2029Y876D01*
X2035Y885D01*
X2039Y895D01*
X2040Y900D01*
D02*
G37*
G36*
X245D02*
X210D01*
X211Y895D01*
X215Y885D01*
X221Y876D01*
X230Y870D01*
X240Y866D01*
X245Y865D01*
Y900D01*
D02*
G37*
G36*
X290D02*
X255D01*
Y865D01*
X260Y866D01*
X270Y870D01*
X279Y876D01*
X285Y885D01*
X289Y895D01*
X290Y900D01*
D02*
G37*
G36*
X-543Y947D02*
X-567D01*
Y909D01*
X-543D01*
Y947D01*
D02*
G37*
G36*
X-509D02*
X-533D01*
Y909D01*
X-509D01*
Y947D01*
D02*
G37*
G36*
X1900Y940D02*
X1891Y939D01*
X1882Y936D01*
X1875Y930D01*
X1869Y923D01*
X1866Y914D01*
X1865Y905D01*
X1866Y896D01*
X1869Y887D01*
X1875Y880D01*
X1882Y874D01*
X1891Y871D01*
X1900Y870D01*
X1909Y871D01*
X1918Y874D01*
X1925Y880D01*
X1931Y887D01*
X1934Y896D01*
X1935Y905D01*
X1934Y914D01*
X1931Y923D01*
X1925Y930D01*
X1918Y936D01*
X1909Y939D01*
X1900Y940D01*
D02*
G37*
G36*
X-631Y940D02*
X-665D01*
Y906D01*
X-660Y906D01*
X-650Y910D01*
X-642Y917D01*
X-635Y925D01*
X-631Y935D01*
X-631Y940D01*
D02*
G37*
G36*
X-665Y884D02*
Y850D01*
X-631D01*
X-631Y855D01*
X-635Y865D01*
X-642Y873D01*
X-650Y880D01*
X-660Y884D01*
X-665Y884D01*
D02*
G37*
G36*
X265Y774D02*
X260Y774D01*
X250Y770D01*
X242Y763D01*
X235Y755D01*
X231Y745D01*
X231Y740D01*
X265D01*
Y774D01*
D02*
G37*
G36*
X275D02*
Y740D01*
X309D01*
X309Y745D01*
X305Y755D01*
X298Y763D01*
X290Y770D01*
X280Y774D01*
X275Y774D01*
D02*
G37*
G36*
X-543Y776D02*
X-567D01*
Y737D01*
X-543D01*
Y776D01*
D02*
G37*
G36*
X-509D02*
X-533D01*
Y737D01*
X-509D01*
Y776D01*
D02*
G37*
G36*
Y824D02*
X-533D01*
Y786D01*
X-509D01*
Y824D01*
D02*
G37*
G36*
X-631Y840D02*
X-665D01*
Y806D01*
X-660Y806D01*
X-650Y810D01*
X-642Y817D01*
X-635Y825D01*
X-631Y835D01*
X-631Y840D01*
D02*
G37*
G36*
X-665Y784D02*
Y750D01*
X-631D01*
X-631Y755D01*
X-635Y765D01*
X-642Y773D01*
X-650Y780D01*
X-660Y784D01*
X-665Y784D01*
D02*
G37*
G36*
X-543Y824D02*
X-567D01*
Y786D01*
X-543D01*
Y824D01*
D02*
G37*
%LPD*%
D10*
X632Y240D02*
D03*
X664D02*
D03*
X758D02*
D03*
X726D02*
D03*
X695D02*
D03*
D11*
X-432Y95D02*
D03*
X-538D02*
D03*
X520Y495D02*
D03*
X630D02*
D03*
X520Y350D02*
D03*
X630D02*
D03*
X-318Y1303D02*
D03*
X-212D02*
D03*
X-318Y1131D02*
D03*
X-212D02*
D03*
X-318Y960D02*
D03*
X-212D02*
D03*
X-318Y789D02*
D03*
X-212D02*
D03*
X-318Y601D02*
D03*
X-212D02*
D03*
X-318Y430D02*
D03*
X-212D02*
D03*
X-318Y259D02*
D03*
X-212D02*
D03*
X-318Y87D02*
D03*
X-212D02*
D03*
X-432Y1295D02*
D03*
X-538D02*
D03*
X-432Y1124D02*
D03*
X-538D02*
D03*
X-432Y952D02*
D03*
X-538D02*
D03*
X-432Y781D02*
D03*
X-538D02*
D03*
X-432Y609D02*
D03*
X-538D02*
D03*
X-432Y438D02*
D03*
X-538D02*
D03*
X-432Y266D02*
D03*
X-538D02*
D03*
D12*
X2210Y1222D02*
D03*
Y1288D02*
D03*
X2210Y233D02*
D03*
Y300D02*
D03*
X2295Y233D02*
D03*
Y300D02*
D03*
X2385D02*
D03*
Y233D02*
D03*
X2470D02*
D03*
Y300D02*
D03*
X2210Y113D02*
D03*
Y180D02*
D03*
X2295D02*
D03*
Y113D02*
D03*
X2385D02*
D03*
Y180D02*
D03*
X2470D02*
D03*
Y113D02*
D03*
Y683D02*
D03*
Y617D02*
D03*
X2385D02*
D03*
Y683D02*
D03*
X2295D02*
D03*
Y617D02*
D03*
X2210D02*
D03*
Y683D02*
D03*
X2470Y1168D02*
D03*
Y1102D02*
D03*
X2385Y1168D02*
D03*
Y1102D02*
D03*
X2295Y1168D02*
D03*
Y1102D02*
D03*
X2210Y1168D02*
D03*
Y1102D02*
D03*
X2470Y737D02*
D03*
Y803D02*
D03*
X2385D02*
D03*
Y737D02*
D03*
X2295D02*
D03*
Y803D02*
D03*
X2210Y737D02*
D03*
Y803D02*
D03*
X2470Y1222D02*
D03*
Y1288D02*
D03*
X2385Y1222D02*
D03*
Y1288D02*
D03*
X2295Y1222D02*
D03*
Y1288D02*
D03*
D13*
X1259Y200D02*
D03*
X1461D02*
D03*
D14*
X893Y380D02*
D03*
X767D02*
D03*
X1142Y410D02*
D03*
X1268D02*
D03*
D15*
X1910Y995D02*
X2017Y1102D01*
X1855Y995D02*
X1910D01*
X1915Y1105D02*
Y1130D01*
X1815Y1105D02*
X1915D01*
Y1130D02*
X2000Y1215D01*
Y1305D01*
X425Y935D02*
Y1095D01*
Y725D02*
Y935D01*
X1795D02*
X1855Y995D01*
X425Y935D02*
X1795D01*
X425Y1095D02*
X435Y1105D01*
X425Y725D02*
X579D01*
X2037Y337D02*
Y391D01*
X1537Y517D02*
X1840D01*
X1461Y441D02*
X1537Y517D01*
X1461Y200D02*
Y441D01*
X840Y539D02*
Y680D01*
X885Y725D01*
X1111D01*
X893Y380D02*
Y492D01*
X940Y539D01*
X1410Y650D02*
Y705D01*
X1259Y200D02*
Y401D01*
X1268Y410D01*
X1510Y652D01*
Y705D01*
X1285Y525D02*
X1410Y650D01*
X1055Y525D02*
X1285D01*
X893Y380D02*
X1010D01*
X1035Y405D01*
Y505D01*
X1055Y525D01*
X-117Y845D02*
X-70D01*
X-211Y939D02*
X-117Y845D01*
X-210Y1085D02*
X-70Y945D01*
X-210Y1085D02*
Y1131D01*
X-150Y1125D02*
X-70Y1045D01*
X-150Y1125D02*
Y1221D01*
X-212Y1283D02*
X-150Y1221D01*
X-203Y778D02*
X-170Y745D01*
X-70D01*
X-170Y645D02*
X-70D01*
X-203Y612D02*
X-170Y645D01*
X-214Y104D02*
X-150Y169D01*
Y265D01*
X-70Y345D01*
X-210Y259D02*
Y305D01*
X-70Y445D01*
X-211Y451D02*
X-117Y545D01*
X-70D01*
D16*
X235Y1105D02*
X335D01*
X150Y1190D02*
X235Y1105D01*
X150Y1190D02*
Y1305D01*
Y1020D02*
X235Y1105D01*
X150Y905D02*
Y1020D01*
D17*
X155Y150D02*
Y290D01*
X190Y325D01*
X350D01*
X425Y400D01*
Y625D01*
X630Y380D02*
X630Y380D01*
X630Y485D02*
Y500D01*
X669Y539D01*
X740D01*
X632Y240D02*
Y483D01*
X630Y485D02*
X630Y485D01*
X632Y483D01*
D18*
X-432Y781D02*
Y789D01*
Y952D02*
Y961D01*
Y1295D02*
Y1303D01*
X-432Y1303D01*
X-423Y1131D02*
X-318D01*
X-432Y1123D02*
X-423Y1131D01*
X-432Y952D02*
X-424Y960D01*
X-432Y789D02*
X-431Y789D01*
X-424Y960D02*
X-318D01*
X-317Y961D01*
X-432Y1303D02*
X-318D01*
X-318Y1303D01*
X-431Y789D02*
X-318D01*
X-318Y789D01*
X-318Y601D02*
X-318Y601D01*
X-431Y601D02*
X-318D01*
X-318Y87D02*
X-318Y87D01*
X-432Y87D02*
X-318D01*
X-318Y430D02*
X-317Y429D01*
X-424Y430D02*
X-318D01*
X-432Y601D02*
X-431Y601D01*
X-432Y438D02*
X-424Y430D01*
X-432Y267D02*
X-423Y259D01*
X-318D01*
X-432Y87D02*
X-432Y87D01*
X-432Y87D02*
Y95D01*
Y429D02*
Y438D01*
Y601D02*
Y609D01*
X2210Y1288D02*
X2295D01*
Y1335D01*
X2320D01*
X2327Y1342D01*
X2334Y1335D01*
X2359D01*
X2399D02*
X2406Y1342D01*
X2373Y1335D02*
X2399D01*
X2385Y1288D02*
Y1333D01*
X2366Y1342D02*
X2373Y1335D01*
X2385Y1288D02*
X2470D01*
X2385Y803D02*
X2470D01*
X2210D02*
X2295D01*
Y833D01*
X2287Y841D02*
X2295Y833D01*
X2287Y841D02*
X2326D01*
X2327Y840D01*
X2366D01*
X2387Y805D02*
Y840D01*
X2385Y803D02*
X2387Y805D01*
X2366Y840D02*
X2387D01*
X2406D01*
X2387Y336D02*
X2406D01*
X2366D02*
X2387D01*
X2385Y300D02*
X2387Y302D01*
Y336D01*
X2327D02*
X2366D01*
X2326Y337D02*
X2327Y336D01*
X2287Y337D02*
X2326D01*
X2287D02*
X2295Y329D01*
Y300D02*
Y329D01*
X2210Y300D02*
X2295D01*
X2385D02*
X2470D01*
D19*
X2210Y1067D02*
Y1102D01*
X2209Y1066D02*
X2210Y1067D01*
X2295Y1088D02*
Y1102D01*
X2273Y1066D02*
X2295Y1088D01*
X2248Y1066D02*
X2273D01*
X2366Y1067D02*
X2458D01*
X2470Y1079D01*
Y1102D01*
X2327Y1066D02*
X2339D01*
X2375Y1102D01*
X2385D01*
X2210Y1168D02*
Y1222D01*
X2295Y1168D02*
Y1222D01*
X2385Y1168D02*
Y1222D01*
X2470Y1168D02*
Y1222D01*
Y575D02*
Y617D01*
X2458Y563D02*
X2470Y575D01*
X2366Y563D02*
X2458D01*
X2248Y562D02*
X2273D01*
X2295Y584D01*
X2209Y562D02*
X2210Y563D01*
Y617D01*
X2295Y584D02*
Y616D01*
X2327Y562D02*
X2341D01*
X2369Y590D01*
Y612D01*
X2210Y683D02*
Y737D01*
X2295Y683D02*
Y737D01*
X2385Y683D02*
Y737D01*
X2385Y737D01*
X2470Y683D02*
Y737D01*
X2470Y737D01*
X2470Y233D02*
X2470Y233D01*
X2470Y180D02*
Y233D01*
X2385D02*
X2385Y233D01*
X2385Y180D02*
Y233D01*
X2295Y180D02*
Y233D01*
X2210Y180D02*
Y233D01*
X2369Y86D02*
Y108D01*
X2341Y59D02*
X2369Y86D01*
X2327Y59D02*
X2341D01*
X2295Y81D02*
Y112D01*
X2210Y60D02*
Y113D01*
X2209Y59D02*
X2210Y60D01*
X2273Y59D02*
X2295Y81D01*
X2248Y59D02*
X2273D01*
X2366Y60D02*
X2458D01*
X2470Y72D01*
Y113D01*
D20*
X551Y146D02*
D03*
X839D02*
D03*
D21*
X155Y150D02*
D03*
X255D02*
D03*
X1410Y705D02*
D03*
X1510D02*
D03*
D22*
X355Y150D02*
D03*
X1310Y705D02*
D03*
D23*
X1839Y265D02*
D03*
Y509D02*
D03*
D24*
X2036Y383D02*
D03*
D25*
X579Y725D02*
D03*
X1111D02*
D03*
D26*
X425Y625D02*
D03*
Y725D02*
D03*
X1900Y1305D02*
D03*
X2000D02*
D03*
Y905D02*
D03*
X1900D02*
D03*
X250Y1305D02*
D03*
X150D02*
D03*
X250Y905D02*
D03*
X150D02*
D03*
D27*
X1715Y1105D02*
D03*
X1815D02*
D03*
X1915D02*
D03*
X740Y539D02*
D03*
X840D02*
D03*
X-670Y1245D02*
D03*
Y1145D02*
D03*
Y1045D02*
D03*
Y945D02*
D03*
Y845D02*
D03*
Y745D02*
D03*
Y645D02*
D03*
Y545D02*
D03*
Y445D02*
D03*
Y345D02*
D03*
Y245D02*
D03*
X3189Y1070D02*
D03*
Y1170D02*
D03*
X2589Y1070D02*
D03*
Y970D02*
D03*
Y1170D02*
D03*
X3189Y970D02*
D03*
Y870D02*
D03*
Y670D02*
D03*
Y570D02*
D03*
Y770D02*
D03*
Y170D02*
D03*
Y270D02*
D03*
Y370D02*
D03*
Y470D02*
D03*
X2589Y670D02*
D03*
Y870D02*
D03*
Y770D02*
D03*
Y570D02*
D03*
Y470D02*
D03*
Y370D02*
D03*
Y270D02*
D03*
Y170D02*
D03*
Y70D02*
D03*
X-70Y1245D02*
D03*
Y1145D02*
D03*
Y1045D02*
D03*
Y945D02*
D03*
Y845D02*
D03*
Y745D02*
D03*
Y645D02*
D03*
Y545D02*
D03*
Y445D02*
D03*
Y345D02*
D03*
Y245D02*
D03*
X135Y1105D02*
D03*
X235D02*
D03*
X335D02*
D03*
X135Y635D02*
D03*
Y535D02*
D03*
Y435D02*
D03*
X270Y535D02*
D03*
Y635D02*
D03*
Y735D02*
D03*
D28*
X2015Y1105D02*
D03*
X940Y539D02*
D03*
X435Y1105D02*
D03*
D29*
X-670Y145D02*
D03*
X3189Y70D02*
D03*
X-70Y145D02*
D03*
X135Y735D02*
D03*
X270Y435D02*
D03*
D30*
X2209Y1066D02*
D03*
X2248D02*
D03*
X2327D02*
D03*
X2366Y1067D02*
D03*
X2327Y1342D02*
D03*
X2366D02*
D03*
X2406D02*
D03*
X2287Y1343D02*
D03*
X2366Y563D02*
D03*
X2327Y562D02*
D03*
X2248D02*
D03*
X2209D02*
D03*
X2287Y841D02*
D03*
X2406Y840D02*
D03*
X2366D02*
D03*
X2327D02*
D03*
Y336D02*
D03*
X2366D02*
D03*
X2406D02*
D03*
X2287Y337D02*
D03*
X2209Y59D02*
D03*
X2248D02*
D03*
X2327D02*
D03*
X2366Y60D02*
D03*
M02*
