%FSLAX23Y23*%
%MOIN*%
G70*
G01*
G75*
G04 Layer_Color=32768*
%ADD10R,0.020X0.055*%
%ADD11R,0.037X0.067*%
%ADD12R,0.051X0.033*%
%ADD13R,0.132X0.213*%
%ADD14R,0.079X0.087*%
%ADD15C,0.025*%
%ADD16C,0.020*%
%ADD17C,0.015*%
%ADD18C,0.010*%
%ADD19C,0.005*%
%ADD20O,0.043X0.142*%
%ADD21C,0.063*%
%ADD22R,0.063X0.063*%
%ADD23P,0.128X8X112.5*%
%ADD24P,0.128X8X202.5*%
%ADD25C,0.081*%
%ADD26C,0.060*%
%ADD27C,0.059*%
%ADD28R,0.059X0.059*%
%ADD29R,0.059X0.059*%
%ADD30C,0.016*%
%ADD31C,0.024*%
%ADD32C,0.010*%
%ADD33C,0.012*%
%ADD34C,0.006*%
%ADD35C,0.008*%
%ADD36C,0.006*%
%ADD37R,0.028X0.063*%
%ADD38R,0.045X0.075*%
%ADD39R,0.059X0.041*%
%ADD40R,0.140X0.221*%
%ADD41R,0.087X0.095*%
%ADD42O,0.051X0.150*%
%ADD43C,0.071*%
%ADD44R,0.071X0.071*%
%ADD45P,0.137X8X112.5*%
%ADD46P,0.137X8X202.5*%
%ADD47C,0.089*%
%ADD48C,0.068*%
%ADD49C,0.067*%
%ADD50R,0.067X0.067*%
%ADD51R,0.067X0.067*%
%ADD52C,0.028*%
%ADD53C,0.002*%
%ADD54C,0.004*%
D16*
X2150Y0D02*
Y1400D01*
X0Y0D02*
Y1400D01*
X2150Y395D02*
X2545D01*
X2150Y500D02*
X2545D01*
X2150Y895D02*
X2545D01*
X2150Y1005D02*
X2545D01*
Y0D02*
Y1245D01*
X3397Y1488D02*
X4770D01*
Y1120D02*
Y1488D01*
X3397Y1120D02*
X4770D01*
X3397D02*
Y1488D01*
D18*
X285Y1720D02*
X1885D01*
Y1610D02*
Y1720D01*
X285Y1610D02*
X1885D01*
X285D02*
Y1720D01*
X1900Y1650D02*
X2140Y1430D01*
X2130Y1470D02*
X2140Y1430D01*
X2130Y1470D02*
X2140Y1430D01*
X2100Y1440D02*
X2140Y1430D01*
X25Y1425D02*
X65Y1435D01*
X25Y1425D02*
X35Y1465D01*
X25Y1425D02*
X35Y1465D01*
X25Y1425D02*
X265Y1645D01*
X330Y1695D02*
Y1655D01*
X350Y1635D01*
X370Y1655D01*
Y1695D01*
X490Y1685D02*
X480Y1695D01*
X460D01*
X450Y1685D01*
Y1675D01*
X460Y1665D01*
X480D01*
X490Y1655D01*
Y1645D01*
X480Y1635D01*
X460D01*
X450Y1645D01*
X550Y1675D02*
X520D01*
X510Y1665D01*
Y1645D01*
X520Y1635D01*
X550D01*
X580D02*
X600D01*
X610Y1645D01*
Y1665D01*
X600Y1675D01*
X580D01*
X570Y1665D01*
Y1645D01*
X580Y1635D01*
X630Y1675D02*
Y1635D01*
Y1655D01*
X640Y1665D01*
X650Y1675D01*
X660D01*
X720Y1635D02*
X700D01*
X690Y1645D01*
Y1665D01*
X700Y1675D01*
X720D01*
X730Y1665D01*
Y1655D01*
X690D01*
X820Y1685D02*
Y1675D01*
X810D01*
X830D01*
X820D01*
Y1645D01*
X830Y1635D01*
X860Y1695D02*
Y1635D01*
Y1665D01*
X870Y1675D01*
X890D01*
X900Y1665D01*
Y1635D01*
X950D02*
X930D01*
X920Y1645D01*
Y1665D01*
X930Y1675D01*
X950D01*
X960Y1665D01*
Y1655D01*
X920D01*
X1040Y1635D02*
X1060D01*
X1050D01*
Y1695D01*
X1040D01*
X1090Y1635D02*
X1110D01*
X1100D01*
Y1675D01*
X1090D01*
X1140Y1635D02*
Y1675D01*
X1170D01*
X1180Y1665D01*
Y1635D01*
X1230D02*
X1210D01*
X1200Y1645D01*
Y1665D01*
X1210Y1675D01*
X1230D01*
X1240Y1665D01*
Y1655D01*
X1200D01*
X1260Y1635D02*
X1290D01*
X1300Y1645D01*
X1290Y1655D01*
X1270D01*
X1260Y1665D01*
X1270Y1675D01*
X1300D01*
X1390Y1635D02*
X1410D01*
X1420Y1645D01*
Y1665D01*
X1410Y1675D01*
X1390D01*
X1380Y1665D01*
Y1645D01*
X1390Y1635D01*
X1440D02*
Y1675D01*
X1470D01*
X1480Y1665D01*
Y1635D01*
X1560Y1685D02*
X1600Y1645D01*
X1560D02*
X1600Y1685D01*
X1560Y1665D02*
X1600D01*
X1580Y1645D02*
Y1685D01*
X1620Y1635D02*
Y1645D01*
X1630D01*
Y1635D01*
X1620D01*
X1710Y1685D02*
X1700Y1695D01*
X1680D01*
X1670Y1685D01*
Y1645D01*
X1680Y1635D01*
X1700D01*
X1710Y1645D01*
Y1665D01*
X1690D01*
X1730Y1635D02*
Y1695D01*
X1750Y1675D01*
X1770Y1695D01*
Y1635D01*
X1830D02*
X1790D01*
X1830Y1675D01*
Y1685D01*
X1820Y1695D01*
X1800D01*
X1790Y1685D01*
X3502Y1384D02*
Y1324D01*
X3532D01*
X3542Y1334D01*
Y1344D01*
X3532Y1354D01*
X3502D01*
X3532D01*
X3542Y1364D01*
Y1374D01*
X3532Y1384D01*
X3502D01*
X3572Y1324D02*
X3592D01*
X3602Y1334D01*
Y1354D01*
X3592Y1364D01*
X3572D01*
X3562Y1354D01*
Y1334D01*
X3572Y1324D01*
X3632Y1364D02*
X3652D01*
X3662Y1354D01*
Y1324D01*
X3632D01*
X3622Y1334D01*
X3632Y1344D01*
X3662D01*
X3682Y1364D02*
Y1324D01*
Y1344D01*
X3692Y1354D01*
X3702Y1364D01*
X3712D01*
X3782Y1384D02*
Y1324D01*
X3752D01*
X3742Y1334D01*
Y1354D01*
X3752Y1364D01*
X3782D01*
X3892Y1384D02*
X3872D01*
X3862Y1374D01*
Y1334D01*
X3872Y1324D01*
X3892D01*
X3902Y1334D01*
Y1374D01*
X3892Y1384D01*
X3922Y1364D02*
Y1334D01*
X3932Y1324D01*
X3962D01*
Y1364D01*
X3992Y1374D02*
Y1364D01*
X3982D01*
X4002D01*
X3992D01*
Y1334D01*
X4002Y1324D01*
X4032D02*
X4052D01*
X4042D01*
Y1384D01*
X4032D01*
X4082Y1324D02*
X4102D01*
X4092D01*
Y1364D01*
X4082D01*
X4132Y1324D02*
Y1364D01*
X4162D01*
X4172Y1354D01*
Y1324D01*
X4222D02*
X4202D01*
X4192Y1334D01*
Y1354D01*
X4202Y1364D01*
X4222D01*
X4232Y1354D01*
Y1344D01*
X4192D01*
X4312Y1324D02*
Y1384D01*
X4332Y1364D01*
X4352Y1384D01*
Y1324D01*
X4402D02*
X4382D01*
X4372Y1334D01*
Y1354D01*
X4382Y1364D01*
X4402D01*
X4412Y1354D01*
Y1344D01*
X4372D01*
X4472Y1364D02*
X4442D01*
X4432Y1354D01*
Y1334D01*
X4442Y1324D01*
X4472D01*
X4492Y1384D02*
Y1324D01*
Y1354D01*
X4502Y1364D01*
X4522D01*
X4532Y1354D01*
Y1324D01*
X4612D02*
X4632D01*
X4622D01*
Y1384D01*
X4612Y1374D01*
X3502Y1266D02*
Y1226D01*
X3522Y1206D01*
X3542Y1226D01*
Y1266D01*
X3602Y1256D02*
X3592Y1266D01*
X3572D01*
X3562Y1256D01*
Y1246D01*
X3572Y1236D01*
X3592D01*
X3602Y1226D01*
Y1216D01*
X3592Y1206D01*
X3572D01*
X3562Y1216D01*
X3662Y1246D02*
X3632D01*
X3622Y1236D01*
Y1216D01*
X3632Y1206D01*
X3662D01*
X3692D02*
X3712D01*
X3722Y1216D01*
Y1236D01*
X3712Y1246D01*
X3692D01*
X3682Y1236D01*
Y1216D01*
X3692Y1206D01*
X3742Y1246D02*
Y1206D01*
Y1226D01*
X3752Y1236D01*
X3762Y1246D01*
X3772D01*
X3832Y1206D02*
X3812D01*
X3802Y1216D01*
Y1236D01*
X3812Y1246D01*
X3832D01*
X3842Y1236D01*
Y1226D01*
X3802D01*
X3922Y1206D02*
Y1266D01*
X3942Y1246D01*
X3962Y1266D01*
Y1206D01*
X4012D02*
X3992D01*
X3982Y1216D01*
Y1236D01*
X3992Y1246D01*
X4012D01*
X4022Y1236D01*
Y1226D01*
X3982D01*
X4082Y1246D02*
X4052D01*
X4042Y1236D01*
Y1216D01*
X4052Y1206D01*
X4082D01*
X4102Y1266D02*
Y1206D01*
Y1236D01*
X4112Y1246D01*
X4132D01*
X4142Y1236D01*
Y1206D01*
X4172Y1246D02*
X4192D01*
X4202Y1236D01*
Y1206D01*
X4172D01*
X4162Y1216D01*
X4172Y1226D01*
X4202D01*
X4222Y1206D02*
Y1246D01*
X4252D01*
X4262Y1236D01*
Y1206D01*
X4282D02*
X4302D01*
X4292D01*
Y1246D01*
X4282D01*
X4372D02*
X4342D01*
X4332Y1236D01*
Y1216D01*
X4342Y1206D01*
X4372D01*
X4402Y1246D02*
X4422D01*
X4432Y1236D01*
Y1206D01*
X4402D01*
X4392Y1216D01*
X4402Y1226D01*
X4432D01*
X4452Y1206D02*
X4472D01*
X4462D01*
Y1266D01*
X4452D01*
X4602Y1206D02*
X4562D01*
X4602Y1246D01*
Y1256D01*
X4592Y1266D01*
X4572D01*
X4562Y1256D01*
M02*
