%FSLAX23Y23*%
%MOIN*%
G70*
G01*
G75*
G04 Layer_Color=16711935*
%ADD10R,0.020X0.055*%
%ADD11R,0.037X0.067*%
%ADD12R,0.051X0.033*%
%ADD13R,0.132X0.213*%
%ADD14R,0.079X0.087*%
%ADD15C,0.025*%
%ADD16C,0.020*%
%ADD17C,0.015*%
%ADD18C,0.010*%
%ADD19C,0.005*%
%ADD20O,0.043X0.142*%
%ADD21C,0.063*%
%ADD22R,0.063X0.063*%
%ADD23P,0.128X8X112.5*%
%ADD24P,0.128X8X202.5*%
%ADD25C,0.081*%
%ADD26C,0.060*%
%ADD27C,0.059*%
%ADD28R,0.059X0.059*%
%ADD29R,0.059X0.059*%
%ADD30C,0.016*%
%ADD31C,0.024*%
%ADD32C,0.010*%
%ADD33C,0.012*%
%ADD34C,0.006*%
%ADD35C,0.008*%
%ADD36C,0.006*%
%ADD37R,0.028X0.063*%
%ADD38R,0.045X0.075*%
%ADD39R,0.059X0.041*%
%ADD40R,0.140X0.221*%
%ADD41R,0.087X0.095*%
%ADD42O,0.051X0.150*%
%ADD43C,0.071*%
%ADD44R,0.071X0.071*%
%ADD45P,0.137X8X112.5*%
%ADD46P,0.137X8X202.5*%
%ADD47C,0.089*%
%ADD48C,0.068*%
%ADD49C,0.067*%
%ADD50R,0.067X0.067*%
%ADD51R,0.067X0.067*%
%ADD52C,0.028*%
%ADD53C,0.002*%
%ADD54C,0.004*%
D16*
X1780Y1330D02*
Y1400D01*
X1550Y1100D02*
X1780Y1330D01*
X370D02*
X600Y1100D01*
X300Y1400D02*
X370D01*
Y1330D02*
Y1400D01*
X0D02*
X300D01*
X-740Y0D02*
Y1400D01*
X0D01*
X-740Y0D02*
X0D01*
X2150D01*
X600Y1100D02*
X1550D01*
X1780Y1400D02*
X2150D01*
X2544D01*
X2150Y0D02*
X2544D01*
X3229D01*
Y1242D01*
X2544D02*
X3229D01*
X2544D02*
Y1400D01*
D53*
X3224Y20D02*
G03*
X3239Y35I0J15D01*
G01*
X2539D02*
G03*
X2554Y20I15J0D01*
G01*
Y1220D02*
G03*
X2539Y1205I0J-15D01*
G01*
X3239D02*
G03*
X3224Y1220I-15J0D01*
G01*
X2554Y20D02*
X3224D01*
X2539Y35D02*
Y1205D01*
X2554Y1220D02*
X3224D01*
X3239Y35D02*
Y1205D01*
D54*
X2150Y0D02*
X2544D01*
M02*
