%FSLAX23Y23*%
%MOIN*%
G70*
G01*
G75*
G04 Layer_Color=8421504*
%ADD10R,0.020X0.055*%
%ADD11R,0.037X0.067*%
%ADD12R,0.051X0.033*%
%ADD13R,0.132X0.213*%
%ADD14R,0.079X0.087*%
%ADD15C,0.025*%
%ADD16C,0.020*%
%ADD17C,0.015*%
%ADD18C,0.010*%
%ADD19C,0.005*%
%ADD20O,0.043X0.142*%
%ADD21C,0.063*%
%ADD22R,0.063X0.063*%
%ADD23P,0.128X8X112.5*%
%ADD24P,0.128X8X202.5*%
%ADD25C,0.081*%
%ADD26C,0.060*%
%ADD27C,0.059*%
%ADD28R,0.059X0.059*%
%ADD29R,0.059X0.059*%
%ADD30C,0.016*%
%ADD31C,0.024*%
%ADD32C,0.010*%
%ADD33C,0.012*%
%ADD34C,0.006*%
%ADD35C,0.008*%
%ADD36C,0.006*%
D10*
X632Y240D02*
D03*
X664D02*
D03*
X758D02*
D03*
X726D02*
D03*
X695D02*
D03*
D11*
X-432Y95D02*
D03*
X-538D02*
D03*
X520Y495D02*
D03*
X630D02*
D03*
X520Y350D02*
D03*
X630D02*
D03*
X-318Y1303D02*
D03*
X-212D02*
D03*
X-318Y1131D02*
D03*
X-212D02*
D03*
X-318Y960D02*
D03*
X-212D02*
D03*
X-318Y789D02*
D03*
X-212D02*
D03*
X-318Y601D02*
D03*
X-212D02*
D03*
X-318Y430D02*
D03*
X-212D02*
D03*
X-318Y259D02*
D03*
X-212D02*
D03*
X-318Y87D02*
D03*
X-212D02*
D03*
X-432Y1295D02*
D03*
X-538D02*
D03*
X-432Y1124D02*
D03*
X-538D02*
D03*
X-432Y952D02*
D03*
X-538D02*
D03*
X-432Y781D02*
D03*
X-538D02*
D03*
X-432Y609D02*
D03*
X-538D02*
D03*
X-432Y438D02*
D03*
X-538D02*
D03*
X-432Y266D02*
D03*
X-538D02*
D03*
D12*
X2210Y1222D02*
D03*
Y1288D02*
D03*
X2210Y233D02*
D03*
Y300D02*
D03*
X2295Y233D02*
D03*
Y300D02*
D03*
X2385D02*
D03*
Y233D02*
D03*
X2470D02*
D03*
Y300D02*
D03*
X2210Y113D02*
D03*
Y180D02*
D03*
X2295D02*
D03*
Y113D02*
D03*
X2385D02*
D03*
Y180D02*
D03*
X2470D02*
D03*
Y113D02*
D03*
Y683D02*
D03*
Y617D02*
D03*
X2385D02*
D03*
Y683D02*
D03*
X2295D02*
D03*
Y617D02*
D03*
X2210D02*
D03*
Y683D02*
D03*
X2470Y1168D02*
D03*
Y1102D02*
D03*
X2385Y1168D02*
D03*
Y1102D02*
D03*
X2295Y1168D02*
D03*
Y1102D02*
D03*
X2210Y1168D02*
D03*
Y1102D02*
D03*
X2470Y737D02*
D03*
Y803D02*
D03*
X2385D02*
D03*
Y737D02*
D03*
X2295D02*
D03*
Y803D02*
D03*
X2210Y737D02*
D03*
Y803D02*
D03*
X2470Y1222D02*
D03*
Y1288D02*
D03*
X2385Y1222D02*
D03*
Y1288D02*
D03*
X2295Y1222D02*
D03*
Y1288D02*
D03*
D13*
X1259Y200D02*
D03*
X1461D02*
D03*
D14*
X893Y380D02*
D03*
X767D02*
D03*
X1142Y410D02*
D03*
X1268D02*
D03*
M02*
