%FSAX24Y24*%
%MOIN*%
G70*
G01*
G75*
G04 Layer_Color=8388736*
%ADD10R,0.0610X0.0138*%
%ADD11R,0.0374X0.0532*%
%ADD12C,0.0100*%
%ADD13C,0.0591*%
%ADD14R,0.0591X0.0591*%
%ADD15C,0.0200*%
%ADD16C,0.0098*%
%ADD17C,0.0236*%
%ADD18C,0.0070*%
%ADD19C,0.0079*%
%ADD20C,0.0060*%
%ADD21R,0.0665X0.0193*%
%ADD22R,0.0454X0.0612*%
%ADD23C,0.0671*%
%ADD24R,0.0671X0.0671*%
D21*
X012707Y018309D02*
D03*
Y018053D02*
D03*
Y017797D02*
D03*
Y017541D02*
D03*
Y017285D02*
D03*
Y017030D02*
D03*
Y016774D02*
D03*
Y016518D02*
D03*
Y016262D02*
D03*
Y016006D02*
D03*
Y015750D02*
D03*
Y015494D02*
D03*
X014893Y018309D02*
D03*
Y018053D02*
D03*
Y017797D02*
D03*
Y017541D02*
D03*
Y017285D02*
D03*
Y017030D02*
D03*
Y016774D02*
D03*
Y016518D02*
D03*
Y016262D02*
D03*
Y016006D02*
D03*
Y015750D02*
D03*
Y015494D02*
D03*
D22*
X014285Y018950D02*
D03*
X014915D02*
D03*
D23*
X010700Y022500D02*
D03*
Y021500D02*
D03*
Y020500D02*
D03*
Y019500D02*
D03*
Y018500D02*
D03*
Y017500D02*
D03*
Y016500D02*
D03*
Y015500D02*
D03*
Y014500D02*
D03*
Y013500D02*
D03*
Y012500D02*
D03*
X016700Y022500D02*
D03*
Y021500D02*
D03*
Y020500D02*
D03*
Y019500D02*
D03*
Y018500D02*
D03*
Y017500D02*
D03*
Y016500D02*
D03*
Y015500D02*
D03*
Y014500D02*
D03*
Y013500D02*
D03*
Y012500D02*
D03*
D24*
X010700Y011500D02*
D03*
X016700D02*
D03*
M02*
