%FSLAX23Y23*%
%MOIN*%
G70*
G01*
G75*
G04 Layer_Color=128*
%ADD10C,0.059*%
%ADD11R,0.059X0.059*%
%ADD12C,0.024*%
%ADD13C,0.008*%
%ADD14C,0.067*%
%ADD15R,0.067X0.067*%
%ADD16C,0.028*%
D12*
X440Y110D02*
D03*
Y149D02*
D03*
X400Y110D02*
D03*
Y149D02*
D03*
X361Y110D02*
D03*
Y149D02*
D03*
X321Y110D02*
D03*
Y149D02*
D03*
X282Y110D02*
D03*
Y149D02*
D03*
X479Y110D02*
D03*
Y149D02*
D03*
Y188D02*
D03*
Y228D02*
D03*
Y267D02*
D03*
Y306D02*
D03*
Y346D02*
D03*
X518Y110D02*
D03*
Y149D02*
D03*
Y188D02*
D03*
Y228D02*
D03*
Y267D02*
D03*
Y306D02*
D03*
Y346D02*
D03*
Y385D02*
D03*
Y425D02*
D03*
X479Y385D02*
D03*
Y425D02*
D03*
X440Y385D02*
D03*
Y425D02*
D03*
X400Y385D02*
D03*
Y425D02*
D03*
X203D02*
D03*
Y385D02*
D03*
Y346D02*
D03*
Y306D02*
D03*
Y267D02*
D03*
Y228D02*
D03*
Y188D02*
D03*
Y149D02*
D03*
Y110D02*
D03*
X243Y425D02*
D03*
Y385D02*
D03*
Y346D02*
D03*
Y306D02*
D03*
Y267D02*
D03*
Y228D02*
D03*
Y188D02*
D03*
Y149D02*
D03*
Y110D02*
D03*
X282Y425D02*
D03*
Y385D02*
D03*
X321Y425D02*
D03*
Y385D02*
D03*
X361Y425D02*
D03*
Y385D02*
D03*
X282Y1130D02*
D03*
Y1090D02*
D03*
X321Y1130D02*
D03*
Y1090D02*
D03*
X361Y1130D02*
D03*
Y1090D02*
D03*
X400Y1130D02*
D03*
Y1090D02*
D03*
X440Y1130D02*
D03*
Y1090D02*
D03*
X243Y1130D02*
D03*
Y1090D02*
D03*
Y1051D02*
D03*
Y1011D02*
D03*
Y972D02*
D03*
Y933D02*
D03*
Y893D02*
D03*
X203Y1130D02*
D03*
Y1090D02*
D03*
Y1051D02*
D03*
Y1011D02*
D03*
Y972D02*
D03*
Y933D02*
D03*
Y893D02*
D03*
Y854D02*
D03*
Y815D02*
D03*
X243Y854D02*
D03*
Y815D02*
D03*
X282Y854D02*
D03*
Y815D02*
D03*
X321Y854D02*
D03*
Y815D02*
D03*
X518D02*
D03*
Y854D02*
D03*
Y893D02*
D03*
Y933D02*
D03*
Y972D02*
D03*
Y1011D02*
D03*
Y1051D02*
D03*
Y1090D02*
D03*
Y1130D02*
D03*
X479Y815D02*
D03*
Y854D02*
D03*
Y893D02*
D03*
Y933D02*
D03*
Y972D02*
D03*
Y1011D02*
D03*
Y1051D02*
D03*
Y1090D02*
D03*
Y1130D02*
D03*
X440Y815D02*
D03*
Y854D02*
D03*
X400Y815D02*
D03*
Y854D02*
D03*
X361Y815D02*
D03*
Y854D02*
D03*
M02*
