%FSLAX23Y23*%
%MOIN*%
G70*
G01*
G75*
G04 Layer_Color=8388736*
%ADD10R,0.037X0.067*%
%ADD11R,0.079X0.087*%
%ADD12R,0.132X0.213*%
%ADD13R,0.020X0.055*%
%ADD14C,0.025*%
%ADD15C,0.020*%
%ADD16C,0.015*%
%ADD17C,0.060*%
%ADD18R,0.063X0.063*%
%ADD19C,0.063*%
%ADD20C,0.059*%
%ADD21R,0.059X0.059*%
%ADD22R,0.059X0.059*%
%ADD23C,0.081*%
%ADD24P,0.128X8X202.5*%
%ADD25P,0.128X8X112.5*%
%ADD26O,0.142X0.142*%
%ADD27C,0.010*%
%ADD28C,0.010*%
%ADD29C,0.005*%
%ADD30C,0.008*%
%ADD31C,0.006*%
%ADD32C,0.006*%
%ADD33R,0.045X0.075*%
%ADD34R,0.087X0.095*%
%ADD35R,0.140X0.221*%
%ADD36R,0.028X0.063*%
%ADD37C,0.068*%
%ADD38R,0.071X0.071*%
%ADD39C,0.071*%
%ADD40C,0.067*%
%ADD41R,0.067X0.067*%
%ADD42R,0.067X0.067*%
%ADD43C,0.089*%
%ADD44P,0.137X8X202.5*%
%ADD45P,0.137X8X112.5*%
%ADD46O,0.150X0.150*%
D33*
X2860Y1785D02*
D03*
X2750D02*
D03*
X2860Y1640D02*
D03*
X2750D02*
D03*
D34*
X2997Y1670D02*
D03*
X3123D02*
D03*
X3498Y1700D02*
D03*
X3372D02*
D03*
D35*
X3691Y1490D02*
D03*
X3489D02*
D03*
D36*
X2925Y1530D02*
D03*
X2956D02*
D03*
X2988D02*
D03*
X2894D02*
D03*
X2862D02*
D03*
D37*
X4230Y2195D02*
D03*
X4130D02*
D03*
X2380Y2595D02*
D03*
X2480D02*
D03*
X2380Y2195D02*
D03*
X2480D02*
D03*
X2655Y2015D02*
D03*
Y1915D02*
D03*
X4230Y2595D02*
D03*
X4130D02*
D03*
D38*
X2585Y1440D02*
D03*
X3540Y1995D02*
D03*
D39*
X2485Y1440D02*
D03*
X2385D02*
D03*
X3740Y1995D02*
D03*
X3640D02*
D03*
D40*
X2365Y1725D02*
D03*
Y1825D02*
D03*
Y1925D02*
D03*
X2500Y2025D02*
D03*
Y1925D02*
D03*
Y1825D02*
D03*
X4145Y2395D02*
D03*
X4045D02*
D03*
X3945D02*
D03*
X3070Y1829D02*
D03*
X2970D02*
D03*
X2565Y2395D02*
D03*
X2465D02*
D03*
X2365D02*
D03*
D41*
Y2025D02*
D03*
X2500Y1725D02*
D03*
D42*
X4245Y2395D02*
D03*
X3170Y1829D02*
D03*
X2665Y2395D02*
D03*
D43*
X3341Y2015D02*
D03*
X2809D02*
D03*
D44*
X4266Y1673D02*
D03*
D45*
X4069Y1799D02*
D03*
Y1555D02*
D03*
D46*
X3069Y1436D02*
D03*
X2781D02*
D03*
M02*
