%FSLAX23Y23*%
%MOIN*%
G70*
G01*
G75*
%ADD10R,0.037X0.067*%
%ADD11R,0.079X0.087*%
%ADD12R,0.132X0.213*%
%ADD13R,0.020X0.055*%
%ADD14C,0.025*%
%ADD15C,0.020*%
%ADD16C,0.015*%
%ADD17C,0.060*%
%ADD18R,0.063X0.063*%
%ADD19C,0.063*%
%ADD20C,0.059*%
%ADD21R,0.059X0.059*%
%ADD22R,0.059X0.059*%
%ADD23C,0.081*%
%ADD24P,0.128X8X202.5*%
%ADD25P,0.128X8X112.5*%
%ADD26O,0.142X0.142*%
%ADD27C,0.010*%
%ADD28C,0.010*%
%ADD29C,0.005*%
%ADD30C,0.008*%
%ADD31C,0.006*%
%ADD32C,0.006*%
G36*
X3090Y1973D02*
X3050Y2013D01*
X3090Y2053D01*
Y1973D01*
D02*
G37*
D27*
X2675Y1487D02*
G03*
X2675Y1487I-5J0D01*
G01*
X3460Y1948D02*
G03*
X3460Y1948I-5J0D01*
G01*
D28*
X3010Y2013D02*
X3140D01*
X3162Y1603D02*
X3178Y1619D01*
X3162Y1737D02*
X3178Y1721D01*
Y1619D02*
Y1721D01*
X2940Y1603D02*
Y1737D01*
X3162D01*
X2940Y1603D02*
X3162D01*
X3315Y1633D02*
X3537D01*
X3315Y1767D02*
X3537D01*
X3315Y1633D02*
Y1767D01*
X3553Y1649D02*
Y1751D01*
X3537Y1767D02*
X3553Y1751D01*
X3537Y1633D02*
X3553Y1649D01*
D29*
X4241Y2247D02*
X4251D01*
X4261D02*
X4271D01*
X4281Y2237D02*
Y2247D01*
Y2217D02*
Y2227D01*
Y2198D02*
Y2208D01*
Y2178D02*
Y2188D01*
Y2158D02*
Y2168D01*
Y2158D02*
Y2168D01*
Y2144D02*
Y2149D01*
X4260Y2144D02*
X4270D01*
X4240D02*
X4250D01*
X4261Y2247D02*
X4271D01*
X4241D02*
X4251D01*
X4222D02*
X4232D01*
X4163D02*
X4173D01*
X4182D02*
X4192D01*
X4202D02*
X4212D01*
X4104D02*
X4113D01*
X4123D02*
X4133D01*
X4143D02*
X4153D01*
X4084D02*
X4094D01*
X4074Y2237D02*
Y2247D01*
Y2217D02*
Y2227D01*
Y2217D02*
Y2227D01*
Y2198D02*
Y2208D01*
Y2178D02*
Y2188D01*
Y2158D02*
Y2168D01*
Y2144D02*
Y2149D01*
X4083Y2144D02*
X4093D01*
X4142D02*
X4152D01*
X4122D02*
X4132D01*
X4102D02*
X4112D01*
X4201D02*
X4211D01*
X4181D02*
X4191D01*
X4161D02*
X4171D01*
X4221D02*
X4230D01*
X4240D02*
X4250D01*
X4260D02*
X4270D01*
X2359Y2543D02*
X2369D01*
X2339D02*
X2349D01*
X2329D02*
Y2553D01*
Y2563D02*
Y2573D01*
Y2582D02*
Y2592D01*
Y2602D02*
Y2612D01*
Y2622D02*
Y2632D01*
Y2622D02*
Y2632D01*
Y2641D02*
Y2646D01*
X2340D02*
X2350D01*
X2360D02*
X2370D01*
X2339Y2543D02*
X2349D01*
X2359D02*
X2369D01*
X2378D02*
X2388D01*
X2437D02*
X2447D01*
X2418D02*
X2428D01*
X2398D02*
X2408D01*
X2497D02*
X2506D01*
X2477D02*
X2487D01*
X2457D02*
X2467D01*
X2516D02*
X2526D01*
X2536D02*
Y2553D01*
Y2563D02*
Y2573D01*
Y2563D02*
Y2573D01*
Y2582D02*
Y2592D01*
Y2602D02*
Y2612D01*
Y2622D02*
Y2632D01*
Y2641D02*
Y2646D01*
X2517D02*
X2527D01*
X2458D02*
X2468D01*
X2478D02*
X2488D01*
X2498D02*
X2508D01*
X2399D02*
X2409D01*
X2419D02*
X2429D01*
X2439D02*
X2449D01*
X2380D02*
X2389D01*
X2360D02*
X2370D01*
X2340D02*
X2350D01*
X2359Y2143D02*
X2369D01*
X2339D02*
X2349D01*
X2329D02*
Y2153D01*
Y2163D02*
Y2173D01*
Y2182D02*
Y2192D01*
Y2202D02*
Y2212D01*
Y2222D02*
Y2232D01*
Y2222D02*
Y2232D01*
Y2241D02*
Y2246D01*
X2340D02*
X2350D01*
X2360D02*
X2370D01*
X2339Y2143D02*
X2349D01*
X2359D02*
X2369D01*
X2378D02*
X2388D01*
X2437D02*
X2447D01*
X2418D02*
X2428D01*
X2398D02*
X2408D01*
X2497D02*
X2506D01*
X2477D02*
X2487D01*
X2457D02*
X2467D01*
X2516D02*
X2526D01*
X2536D02*
Y2153D01*
Y2163D02*
Y2173D01*
Y2163D02*
Y2173D01*
Y2182D02*
Y2192D01*
Y2202D02*
Y2212D01*
Y2222D02*
Y2232D01*
Y2241D02*
Y2246D01*
X2517D02*
X2527D01*
X2458D02*
X2468D01*
X2478D02*
X2488D01*
X2498D02*
X2508D01*
X2399D02*
X2409D01*
X2419D02*
X2429D01*
X2439D02*
X2449D01*
X2380D02*
X2389D01*
X2360D02*
X2370D01*
X2340D02*
X2350D01*
X2604Y1875D02*
Y1885D01*
Y1895D02*
Y1905D01*
Y1915D02*
Y1924D01*
Y1974D02*
Y1984D01*
Y1954D02*
Y1964D01*
Y1934D02*
Y1944D01*
Y2033D02*
Y2043D01*
Y2013D02*
Y2023D01*
Y1993D02*
Y2003D01*
Y2052D02*
Y2062D01*
Y2071D02*
X2609D01*
X2618D02*
X2628D01*
X2638D02*
X2648D01*
X2658D02*
X2668D01*
X2677D02*
X2687D01*
X2677D02*
X2687D01*
X2697D02*
X2707D01*
Y2051D02*
Y2061D01*
Y1992D02*
Y2002D01*
Y2012D02*
Y2022D01*
Y2032D02*
Y2041D01*
Y1933D02*
Y1943D01*
Y1953D02*
Y1963D01*
Y1972D02*
Y1982D01*
Y1913D02*
Y1923D01*
Y1894D02*
Y1904D01*
Y1874D02*
Y1884D01*
X2604Y1895D02*
Y1905D01*
Y1875D02*
Y1885D01*
Y1864D02*
X2609D01*
X2618D02*
X2628D01*
X2618D02*
X2628D01*
X2638D02*
X2648D01*
X2658D02*
X2668D01*
X2677D02*
X2687D01*
X2697D02*
X2707D01*
Y1874D02*
Y1884D01*
Y1894D02*
Y1904D01*
X4241Y2647D02*
X4251D01*
X4261D02*
X4271D01*
X4281Y2637D02*
Y2647D01*
Y2617D02*
Y2627D01*
Y2598D02*
Y2608D01*
Y2578D02*
Y2588D01*
Y2558D02*
Y2568D01*
Y2558D02*
Y2568D01*
Y2544D02*
Y2549D01*
X4260Y2544D02*
X4270D01*
X4240D02*
X4250D01*
X4261Y2647D02*
X4271D01*
X4241D02*
X4251D01*
X4222D02*
X4232D01*
X4163D02*
X4173D01*
X4182D02*
X4192D01*
X4202D02*
X4212D01*
X4104D02*
X4113D01*
X4123D02*
X4133D01*
X4143D02*
X4153D01*
X4084D02*
X4094D01*
X4074Y2637D02*
Y2647D01*
Y2617D02*
Y2627D01*
Y2617D02*
Y2627D01*
Y2598D02*
Y2608D01*
Y2578D02*
Y2588D01*
Y2558D02*
Y2568D01*
Y2544D02*
Y2549D01*
X4083Y2544D02*
X4093D01*
X4142D02*
X4152D01*
X4122D02*
X4132D01*
X4102D02*
X4112D01*
X4201D02*
X4211D01*
X4181D02*
X4191D01*
X4161D02*
X4171D01*
X4221D02*
X4230D01*
X4240D02*
X4250D01*
X4260D02*
X4270D01*
X3899Y1891D02*
X3890D01*
X3894D01*
Y1870D01*
X3890Y1866D01*
X3886D01*
X3882Y1870D01*
X3907Y1866D02*
X3915D01*
X3911D01*
Y1891D01*
X3907Y1887D01*
X3928Y1866D02*
X3936D01*
X3932D01*
Y1891D01*
X3928Y1887D01*
D30*
X2783Y1755D02*
X2827D01*
X2783Y1815D02*
X2827D01*
X2274Y1347D02*
X2696D01*
X2274Y1328D02*
X2696D01*
X2274Y1513D02*
X2696D01*
Y1328D02*
Y1513D01*
X2274Y1328D02*
Y1513D01*
X2315Y2075D02*
X2415D01*
Y1675D02*
Y2075D01*
X2315Y1675D02*
Y2075D01*
Y1675D02*
X2415D01*
X2450D02*
X2550D01*
X2450D02*
Y2075D01*
X2550Y1675D02*
Y2075D01*
X2450D02*
X2550D01*
X3895Y2345D02*
Y2445D01*
X4295D01*
X3895Y2345D02*
X4295D01*
Y2445D01*
X2783Y1610D02*
X2827D01*
X2783Y1670D02*
X2827D01*
X3570Y1388D02*
X3610D01*
X3570Y1592D02*
X3610D01*
X2920Y1879D02*
X3220D01*
X2920Y1779D02*
Y1879D01*
Y1779D02*
X3220D01*
Y1879D01*
X2315Y2345D02*
Y2445D01*
X2715D01*
X2315Y2345D02*
X2715D01*
Y2445D01*
X2866Y2015D02*
X2910D01*
X3240D02*
X3284D01*
X2910Y1916D02*
Y2114D01*
X3240D01*
Y1916D02*
Y2114D01*
X2910Y1916D02*
X3240D01*
X4246Y1260D02*
Y1586D01*
Y1760D02*
Y1835D01*
X4156D02*
X4246D01*
X3892Y1260D02*
X4246D01*
X3892D02*
Y1835D01*
X3982Y1835D01*
X3851Y1922D02*
Y2107D01*
X3429Y1922D02*
Y2107D01*
Y1922D02*
X3851D01*
X3429Y2107D02*
X3851D01*
X3429Y2088D02*
X3851D01*
D31*
X2773Y1270D02*
X3077D01*
X2773D02*
Y1350D01*
X3077Y1270D02*
Y1350D01*
X2773Y1520D02*
Y1546D01*
X3077Y1520D02*
Y1546D01*
X3015D02*
X3077D01*
X2773D02*
X2835D01*
D32*
X3895Y2295D02*
Y2325D01*
X3910D01*
X3915Y2320D01*
Y2310D01*
X3910Y2305D01*
X3895D01*
X3945Y2295D02*
X3925D01*
X3945Y2315D01*
Y2320D01*
X3940Y2325D01*
X3930D01*
X3925Y2320D01*
X2612Y2103D02*
Y2133D01*
X2626D01*
X2631Y2128D01*
Y2118D01*
X2626Y2113D01*
X2612D01*
X2641Y2133D02*
Y2103D01*
X2651Y2113D01*
X2661Y2103D01*
Y2133D01*
X2671Y2103D02*
Y2133D01*
X2686D01*
X2691Y2128D01*
Y2118D01*
X2686Y2113D01*
X2671D01*
X2681D02*
X2691Y2103D01*
X2701D02*
X2711D01*
X2706D01*
Y2133D01*
X2701Y2128D01*
X2490Y1655D02*
X2480D01*
X2485D01*
Y1630D01*
X2480Y1625D01*
X2475D01*
X2470Y1630D01*
X2520Y1655D02*
X2510Y1650D01*
X2500Y1640D01*
Y1630D01*
X2505Y1625D01*
X2515D01*
X2520Y1630D01*
Y1635D01*
X2515Y1640D01*
X2500D01*
X2350Y1655D02*
X2340D01*
X2345D01*
Y1630D01*
X2340Y1625D01*
X2335D01*
X2330Y1630D01*
X2375Y1625D02*
Y1655D01*
X2360Y1640D01*
X2380D01*
X2280Y1570D02*
Y1545D01*
X2285Y1540D01*
X2295D01*
X2300Y1545D01*
Y1570D01*
X2310Y1565D02*
X2315Y1570D01*
X2325D01*
X2330Y1565D01*
Y1560D01*
X2325Y1555D01*
X2320D01*
X2325D01*
X2330Y1550D01*
Y1545D01*
X2325Y1540D01*
X2315D01*
X2310Y1545D01*
X2615Y2465D02*
Y2495D01*
X2630D01*
X2635Y2490D01*
Y2480D01*
X2630Y2475D01*
X2615D01*
X2645Y2465D02*
X2655D01*
X2650D01*
Y2495D01*
X2645Y2490D01*
X3155Y1570D02*
X3150Y1575D01*
X3140D01*
X3135Y1570D01*
Y1550D01*
X3140Y1545D01*
X3150D01*
X3155Y1550D01*
X3185Y1545D02*
X3165D01*
X3185Y1565D01*
Y1570D01*
X3180Y1575D01*
X3170D01*
X3165Y1570D01*
X3335Y1595D02*
X3330Y1600D01*
X3320D01*
X3315Y1595D01*
Y1575D01*
X3320Y1570D01*
X3330D01*
X3335Y1575D01*
X3345Y1595D02*
X3350Y1600D01*
X3360D01*
X3365Y1595D01*
Y1590D01*
X3360Y1585D01*
X3355D01*
X3360D01*
X3365Y1580D01*
Y1575D01*
X3360Y1570D01*
X3350D01*
X3345Y1575D01*
X2670Y1800D02*
X2665Y1805D01*
X2655D01*
X2650Y1800D01*
Y1780D01*
X2655Y1775D01*
X2665D01*
X2670Y1780D01*
X2695Y1775D02*
Y1805D01*
X2680Y1790D01*
X2700D01*
X3375Y1490D02*
X3355D01*
Y1475D01*
X3365D01*
X3355D01*
Y1460D01*
X3385D02*
X3395D01*
X3390D01*
Y1490D01*
X3385Y1485D01*
X3065Y1844D02*
X3055D01*
X3060D01*
Y1819D01*
X3055Y1814D01*
X3050D01*
X3045Y1819D01*
X3095Y1814D02*
X3075D01*
X3095Y1834D01*
Y1839D01*
X3090Y1844D01*
X3080D01*
X3075Y1839D01*
X3151Y1433D02*
X3141D01*
X3146D01*
Y1408D01*
X3141Y1403D01*
X3136D01*
X3131Y1408D01*
X3181Y1433D02*
X3161D01*
Y1418D01*
X3171Y1423D01*
X3176D01*
X3181Y1418D01*
Y1408D01*
X3176Y1403D01*
X3166D01*
X3161Y1408D01*
X3430Y2160D02*
Y2135D01*
X3435Y2130D01*
X3445D01*
X3450Y2135D01*
Y2160D01*
X3480Y2130D02*
X3460D01*
X3480Y2150D01*
Y2155D01*
X3475Y2160D01*
X3465D01*
X3460Y2155D01*
X3060Y2170D02*
Y2140D01*
X3075D01*
X3080Y2145D01*
Y2165D01*
X3075Y2170D01*
X3060D01*
X3090Y2140D02*
X3100D01*
X3095D01*
Y2170D01*
X3090Y2165D01*
X2330Y2265D02*
Y2295D01*
X2345D01*
X2350Y2290D01*
Y2280D01*
X2345Y2275D01*
X2330D01*
X2360Y2295D02*
Y2265D01*
X2370Y2275D01*
X2380Y2265D01*
Y2295D01*
X2390Y2265D02*
Y2295D01*
X2405D01*
X2410Y2290D01*
Y2280D01*
X2405Y2275D01*
X2390D01*
X2400D02*
X2410Y2265D01*
X2440D02*
X2420D01*
X2440Y2285D01*
Y2290D01*
X2435Y2295D01*
X2425D01*
X2420Y2290D01*
X2330Y2495D02*
Y2525D01*
X2345D01*
X2350Y2520D01*
Y2510D01*
X2345Y2505D01*
X2330D01*
X2360Y2525D02*
Y2495D01*
X2370Y2505D01*
X2380Y2495D01*
Y2525D01*
X2390Y2495D02*
Y2525D01*
X2405D01*
X2410Y2520D01*
Y2510D01*
X2405Y2505D01*
X2390D01*
X2400D02*
X2410Y2495D01*
X2435D02*
Y2525D01*
X2420Y2510D01*
X2440D01*
X4077Y2100D02*
Y2130D01*
X4092D01*
X4097Y2125D01*
Y2115D01*
X4092Y2110D01*
X4077D01*
X4107Y2130D02*
Y2100D01*
X4117Y2110D01*
X4127Y2100D01*
Y2130D01*
X4137Y2100D02*
Y2130D01*
X4152D01*
X4157Y2125D01*
Y2115D01*
X4152Y2110D01*
X4137D01*
X4147D02*
X4157Y2100D01*
X4167Y2125D02*
X4172Y2130D01*
X4182D01*
X4187Y2125D01*
Y2120D01*
X4182Y2115D01*
X4177D01*
X4182D01*
X4187Y2110D01*
Y2105D01*
X4182Y2100D01*
X4172D01*
X4167Y2105D01*
X4075Y2495D02*
Y2525D01*
X4090D01*
X4095Y2520D01*
Y2510D01*
X4090Y2505D01*
X4075D01*
X4105Y2525D02*
Y2495D01*
X4115Y2505D01*
X4125Y2495D01*
Y2525D01*
X4135Y2495D02*
Y2525D01*
X4150D01*
X4155Y2520D01*
Y2510D01*
X4150Y2505D01*
X4135D01*
X4145D02*
X4155Y2495D01*
X4185Y2525D02*
X4165D01*
Y2510D01*
X4175Y2515D01*
X4180D01*
X4185Y2510D01*
Y2500D01*
X4180Y2495D01*
X4170D01*
X4165Y2500D01*
X2669Y1640D02*
X2664Y1645D01*
X2654D01*
X2649Y1640D01*
Y1620D01*
X2654Y1615D01*
X2664D01*
X2669Y1620D01*
X2699Y1645D02*
X2679D01*
Y1630D01*
X2689Y1635D01*
X2694D01*
X2699Y1630D01*
Y1620D01*
X2694Y1615D01*
X2684D01*
X2679Y1620D01*
M02*
