%FSLAX23Y23*%
%MOIN*%
G70*
G01*
G75*
G04 Layer_Physical_Order=2*
G04 Layer_Color=16711680*
%ADD10R,0.037X0.067*%
%ADD11R,0.079X0.087*%
%ADD12R,0.132X0.213*%
%ADD13R,0.020X0.055*%
%ADD14C,0.025*%
%ADD15C,0.020*%
%ADD16C,0.015*%
%ADD17C,0.060*%
%ADD18R,0.063X0.063*%
%ADD19C,0.063*%
%ADD20C,0.059*%
%ADD21R,0.059X0.059*%
%ADD22R,0.059X0.059*%
%ADD23C,0.081*%
%ADD24P,0.128X8X202.5*%
%ADD25P,0.128X8X112.5*%
%ADD26O,0.142X0.142*%
G36*
X4356Y1315D02*
X2263D01*
X2261Y1320D01*
X2261Y1320D01*
Y2660D01*
X2566D01*
X2571Y2655D01*
Y2600D01*
Y2595D01*
X2825Y2340D01*
X3783D01*
X4037Y2595D01*
Y2665D01*
X4356D01*
Y1315D01*
D02*
G37*
%LPC*%
G36*
X2500Y1865D02*
X2490Y1864D01*
X2480Y1860D01*
X2472Y1853D01*
X2465Y1845D01*
X2461Y1835D01*
X2460Y1825D01*
X2461Y1815D01*
X2465Y1805D01*
X2472Y1797D01*
X2480Y1790D01*
X2490Y1786D01*
X2500Y1785D01*
X2510Y1786D01*
X2520Y1790D01*
X2528Y1797D01*
X2535Y1805D01*
X2539Y1815D01*
X2540Y1825D01*
X2539Y1835D01*
X2535Y1845D01*
X2528Y1853D01*
X2520Y1860D01*
X2510Y1864D01*
X2500Y1865D01*
D02*
G37*
G36*
X2970Y1869D02*
X2960Y1868D01*
X2950Y1864D01*
X2942Y1857D01*
X2935Y1849D01*
X2932Y1839D01*
X2930Y1829D01*
X2932Y1819D01*
X2935Y1809D01*
X2942Y1801D01*
X2950Y1795D01*
X2960Y1791D01*
X2970Y1789D01*
X2980Y1791D01*
X2990Y1795D01*
X2998Y1801D01*
X3005Y1809D01*
X3009Y1819D01*
X3010Y1829D01*
X3009Y1839D01*
X3005Y1849D01*
X2998Y1857D01*
X2990Y1864D01*
X2980Y1868D01*
X2970Y1869D01*
D02*
G37*
G36*
X3070D02*
X3060Y1868D01*
X3050Y1864D01*
X3042Y1857D01*
X3035Y1849D01*
X3032Y1839D01*
X3030Y1829D01*
X3032Y1819D01*
X3035Y1809D01*
X3042Y1801D01*
X3050Y1795D01*
X3060Y1791D01*
X3070Y1789D01*
X3080Y1791D01*
X3090Y1795D01*
X3098Y1801D01*
X3105Y1809D01*
X3109Y1819D01*
X3110Y1829D01*
X3109Y1839D01*
X3105Y1849D01*
X3098Y1857D01*
X3090Y1864D01*
X3080Y1868D01*
X3070Y1869D01*
D02*
G37*
G36*
X2365Y1865D02*
X2355Y1864D01*
X2345Y1860D01*
X2337Y1853D01*
X2330Y1845D01*
X2326Y1835D01*
X2325Y1825D01*
X2326Y1815D01*
X2330Y1805D01*
X2337Y1797D01*
X2345Y1790D01*
X2355Y1786D01*
X2365Y1785D01*
X2375Y1786D01*
X2385Y1790D01*
X2393Y1797D01*
X2400Y1805D01*
X2404Y1815D01*
X2405Y1825D01*
X2404Y1835D01*
X2400Y1845D01*
X2393Y1853D01*
X2385Y1860D01*
X2375Y1864D01*
X2365Y1865D01*
D02*
G37*
G36*
X4261Y1742D02*
X4231D01*
X4197Y1708D01*
Y1678D01*
X4261D01*
Y1742D01*
D02*
G37*
G36*
X4300D02*
X4271D01*
Y1678D01*
X4335D01*
Y1708D01*
X4300Y1742D01*
D02*
G37*
G36*
X4104Y1868D02*
X4034D01*
X4000Y1834D01*
Y1765D01*
X4034Y1730D01*
X4104D01*
X4138Y1765D01*
Y1834D01*
X4104Y1868D01*
D02*
G37*
G36*
X3210Y1869D02*
X3130D01*
Y1790D01*
X3210D01*
Y1869D01*
D02*
G37*
G36*
X3535Y1990D02*
X3499D01*
Y1954D01*
X3535D01*
Y1990D01*
D02*
G37*
G36*
X3740Y2037D02*
X3729Y2035D01*
X3719Y2031D01*
X3710Y2025D01*
X3704Y2016D01*
X3700Y2006D01*
X3698Y1995D01*
X3700Y1984D01*
X3704Y1974D01*
X3710Y1965D01*
X3719Y1959D01*
X3729Y1955D01*
X3740Y1953D01*
X3751Y1955D01*
X3761Y1959D01*
X3770Y1965D01*
X3776Y1974D01*
X3780Y1984D01*
X3782Y1995D01*
X3780Y2006D01*
X3776Y2016D01*
X3770Y2025D01*
X3761Y2031D01*
X3751Y2035D01*
X3740Y2037D01*
D02*
G37*
G36*
X2809Y2066D02*
X2796Y2064D01*
X2784Y2059D01*
X2774Y2051D01*
X2765Y2040D01*
X2760Y2028D01*
X2759Y2015D01*
X2760Y2002D01*
X2765Y1990D01*
X2774Y1979D01*
X2784Y1971D01*
X2796Y1966D01*
X2809Y1964D01*
X2823Y1966D01*
X2835Y1971D01*
X2845Y1979D01*
X2853Y1990D01*
X2859Y2002D01*
X2860Y2015D01*
X2859Y2028D01*
X2853Y2040D01*
X2845Y2051D01*
X2835Y2059D01*
X2823Y2064D01*
X2809Y2066D01*
D02*
G37*
G36*
X3581Y1990D02*
X3545D01*
Y1954D01*
X3581D01*
Y1990D01*
D02*
G37*
G36*
X2365Y1965D02*
X2355Y1964D01*
X2345Y1960D01*
X2337Y1953D01*
X2330Y1945D01*
X2326Y1935D01*
X2325Y1925D01*
X2326Y1915D01*
X2330Y1905D01*
X2337Y1897D01*
X2345Y1890D01*
X2355Y1886D01*
X2365Y1885D01*
X2375Y1886D01*
X2385Y1890D01*
X2393Y1897D01*
X2400Y1905D01*
X2404Y1915D01*
X2405Y1925D01*
X2404Y1935D01*
X2400Y1945D01*
X2393Y1953D01*
X2385Y1960D01*
X2375Y1964D01*
X2365Y1965D01*
D02*
G37*
G36*
X2655Y1955D02*
X2645Y1954D01*
X2635Y1950D01*
X2626Y1944D01*
X2620Y1935D01*
X2616Y1925D01*
X2615Y1915D01*
X2616Y1905D01*
X2620Y1895D01*
X2626Y1886D01*
X2635Y1880D01*
X2645Y1876D01*
X2655Y1875D01*
X2665Y1876D01*
X2675Y1880D01*
X2684Y1886D01*
X2690Y1895D01*
X2694Y1905D01*
X2695Y1915D01*
X2694Y1925D01*
X2690Y1935D01*
X2684Y1944D01*
X2675Y1950D01*
X2665Y1954D01*
X2655Y1955D01*
D02*
G37*
G36*
X3640Y2037D02*
X3629Y2035D01*
X3619Y2031D01*
X3610Y2025D01*
X3604Y2016D01*
X3600Y2006D01*
X3598Y1995D01*
X3600Y1984D01*
X3604Y1974D01*
X3610Y1965D01*
X3619Y1959D01*
X3629Y1955D01*
X3640Y1953D01*
X3651Y1955D01*
X3661Y1959D01*
X3670Y1965D01*
X3676Y1974D01*
X3680Y1984D01*
X3682Y1995D01*
X3680Y2006D01*
X3676Y2016D01*
X3670Y2025D01*
X3661Y2031D01*
X3651Y2035D01*
X3640Y2037D01*
D02*
G37*
G36*
X2500Y1965D02*
X2490Y1964D01*
X2480Y1960D01*
X2472Y1953D01*
X2465Y1945D01*
X2461Y1935D01*
X2460Y1925D01*
X2461Y1915D01*
X2465Y1905D01*
X2472Y1897D01*
X2480Y1890D01*
X2490Y1886D01*
X2500Y1885D01*
X2510Y1886D01*
X2520Y1890D01*
X2528Y1897D01*
X2535Y1905D01*
X2539Y1915D01*
X2540Y1925D01*
X2539Y1935D01*
X2535Y1945D01*
X2528Y1953D01*
X2520Y1960D01*
X2510Y1964D01*
X2500Y1965D01*
D02*
G37*
G36*
X2365Y1765D02*
X2355Y1764D01*
X2345Y1760D01*
X2337Y1753D01*
X2330Y1745D01*
X2326Y1735D01*
X2325Y1725D01*
X2326Y1715D01*
X2330Y1705D01*
X2337Y1697D01*
X2345Y1690D01*
X2355Y1686D01*
X2365Y1685D01*
X2375Y1686D01*
X2385Y1690D01*
X2393Y1697D01*
X2400Y1705D01*
X2400Y1707D01*
X2460D01*
Y1685D01*
X2514D01*
X2567Y1633D01*
Y1481D01*
X2544D01*
Y1399D01*
X2626D01*
Y1481D01*
X2603D01*
Y1640D01*
X2603Y1640D01*
X2601Y1647D01*
X2598Y1653D01*
X2598Y1653D01*
X2540Y1711D01*
Y1765D01*
X2460D01*
Y1743D01*
X2400D01*
X2400Y1745D01*
X2393Y1753D01*
X2385Y1760D01*
X2375Y1764D01*
X2365Y1765D01*
D02*
G37*
G36*
X2385Y1482D02*
X2374Y1480D01*
X2364Y1476D01*
X2355Y1470D01*
X2349Y1461D01*
X2345Y1451D01*
X2343Y1440D01*
X2345Y1429D01*
X2349Y1419D01*
X2355Y1410D01*
X2364Y1404D01*
X2374Y1400D01*
X2385Y1398D01*
X2396Y1400D01*
X2406Y1404D01*
X2415Y1410D01*
X2421Y1419D01*
X2425Y1429D01*
X2427Y1440D01*
X2425Y1451D01*
X2421Y1461D01*
X2415Y1470D01*
X2406Y1476D01*
X2396Y1480D01*
X2385Y1482D01*
D02*
G37*
G36*
X2786Y1516D02*
Y1441D01*
X2862D01*
X2861Y1452D01*
X2856Y1467D01*
X2849Y1481D01*
X2839Y1493D01*
X2826Y1503D01*
X2812Y1511D01*
X2797Y1515D01*
X2786Y1516D01*
D02*
G37*
G36*
X2776D02*
X2765Y1515D01*
X2750Y1511D01*
X2736Y1503D01*
X2724Y1493D01*
X2714Y1481D01*
X2706Y1467D01*
X2702Y1452D01*
X2701Y1441D01*
X2776D01*
Y1516D01*
D02*
G37*
G36*
X2862Y1431D02*
X2786D01*
Y1355D01*
X2797Y1356D01*
X2812Y1361D01*
X2826Y1368D01*
X2839Y1378D01*
X2849Y1391D01*
X2856Y1405D01*
X2861Y1420D01*
X2862Y1431D01*
D02*
G37*
G36*
X2776D02*
X2701D01*
X2702Y1420D01*
X2706Y1405D01*
X2714Y1391D01*
X2724Y1378D01*
X2736Y1368D01*
X2750Y1361D01*
X2765Y1356D01*
X2776Y1355D01*
Y1431D01*
D02*
G37*
G36*
X3149D02*
X3074D01*
Y1355D01*
X3085Y1356D01*
X3100Y1361D01*
X3114Y1368D01*
X3126Y1378D01*
X3136Y1391D01*
X3144Y1405D01*
X3148Y1420D01*
X3149Y1431D01*
D02*
G37*
G36*
X3064D02*
X2988D01*
X2989Y1420D01*
X2994Y1405D01*
X3001Y1391D01*
X3011Y1378D01*
X3024Y1368D01*
X3038Y1361D01*
X3053Y1356D01*
X3064Y1355D01*
Y1431D01*
D02*
G37*
G36*
X4104Y1624D02*
X4074D01*
Y1560D01*
X4138D01*
Y1590D01*
X4104Y1624D01*
D02*
G37*
G36*
X4064D02*
X4034D01*
X4000Y1590D01*
Y1560D01*
X4064D01*
Y1624D01*
D02*
G37*
G36*
X4335Y1668D02*
X4271D01*
Y1604D01*
X4300D01*
X4335Y1639D01*
Y1668D01*
D02*
G37*
G36*
X4261D02*
X4197D01*
Y1639D01*
X4231Y1604D01*
X4261D01*
Y1668D01*
D02*
G37*
G36*
X3074Y1516D02*
Y1441D01*
X3149D01*
X3148Y1452D01*
X3144Y1467D01*
X3136Y1481D01*
X3126Y1493D01*
X3114Y1503D01*
X3100Y1511D01*
X3085Y1515D01*
X3074Y1516D01*
D02*
G37*
G36*
X3064D02*
X3053Y1515D01*
X3038Y1511D01*
X3024Y1503D01*
X3011Y1493D01*
X3001Y1481D01*
X2994Y1467D01*
X2989Y1452D01*
X2988Y1441D01*
X3064D01*
Y1516D01*
D02*
G37*
G36*
X4138Y1550D02*
X4074D01*
Y1486D01*
X4104D01*
X4138Y1520D01*
Y1550D01*
D02*
G37*
G36*
X4064D02*
X4000D01*
Y1520D01*
X4034Y1486D01*
X4064D01*
Y1550D01*
D02*
G37*
G36*
X3341Y2066D02*
X3327Y2064D01*
X3315Y2059D01*
X3305Y2051D01*
X3297Y2040D01*
X3291Y2028D01*
X3290Y2015D01*
X3291Y2002D01*
X3297Y1990D01*
X3305Y1979D01*
X3315Y1971D01*
X3327Y1966D01*
X3341Y1964D01*
X3354Y1966D01*
X3366Y1971D01*
X3376Y1979D01*
X3385Y1990D01*
X3390Y2002D01*
X3391Y2015D01*
X3390Y2028D01*
X3385Y2040D01*
X3376Y2051D01*
X3366Y2059D01*
X3354Y2064D01*
X3341Y2066D01*
D02*
G37*
G36*
X2705Y2435D02*
X2625D01*
Y2355D01*
X2705D01*
Y2435D01*
D02*
G37*
G36*
X4045Y2435D02*
X4035Y2434D01*
X4025Y2430D01*
X4017Y2423D01*
X4010Y2415D01*
X4006Y2405D01*
X4005Y2395D01*
X4006Y2385D01*
X4010Y2375D01*
X4017Y2367D01*
X4025Y2360D01*
X4035Y2356D01*
X4045Y2355D01*
X4055Y2356D01*
X4065Y2360D01*
X4073Y2367D01*
X4080Y2375D01*
X4084Y2385D01*
X4085Y2395D01*
X4084Y2405D01*
X4080Y2415D01*
X4073Y2423D01*
X4065Y2430D01*
X4055Y2434D01*
X4045Y2435D01*
D02*
G37*
G36*
X4230Y2635D02*
X4220Y2634D01*
X4210Y2630D01*
X4201Y2624D01*
X4195Y2615D01*
X4191Y2605D01*
X4190Y2595D01*
X4191Y2585D01*
X4195Y2575D01*
X4201Y2566D01*
X4210Y2560D01*
X4220Y2556D01*
X4230Y2555D01*
X4240Y2556D01*
X4250Y2560D01*
X4259Y2566D01*
X4265Y2575D01*
X4269Y2585D01*
X4270Y2595D01*
X4269Y2605D01*
X4265Y2615D01*
X4259Y2624D01*
X4250Y2630D01*
X4240Y2634D01*
X4230Y2635D01*
D02*
G37*
G36*
X2380D02*
X2370Y2634D01*
X2360Y2630D01*
X2351Y2624D01*
X2345Y2615D01*
X2341Y2605D01*
X2340Y2595D01*
X2341Y2585D01*
X2345Y2575D01*
X2351Y2566D01*
X2360Y2560D01*
X2370Y2556D01*
X2380Y2555D01*
X2390Y2556D01*
X2400Y2560D01*
X2409Y2566D01*
X2415Y2575D01*
X2419Y2585D01*
X2420Y2595D01*
X2419Y2605D01*
X2415Y2615D01*
X2409Y2624D01*
X2400Y2630D01*
X2390Y2634D01*
X2380Y2635D01*
D02*
G37*
G36*
X3945Y2435D02*
X3935Y2434D01*
X3925Y2430D01*
X3917Y2423D01*
X3910Y2415D01*
X3906Y2405D01*
X3905Y2395D01*
X3906Y2385D01*
X3907Y2383D01*
X3813Y2288D01*
X2328D01*
Y2333D01*
X2353Y2357D01*
X2355Y2356D01*
X2365Y2355D01*
X2375Y2356D01*
X2385Y2360D01*
X2393Y2367D01*
X2400Y2375D01*
X2404Y2385D01*
X2405Y2395D01*
X2404Y2405D01*
X2400Y2415D01*
X2393Y2423D01*
X2385Y2430D01*
X2375Y2434D01*
X2365Y2435D01*
X2355Y2434D01*
X2345Y2430D01*
X2337Y2423D01*
X2330Y2415D01*
X2326Y2405D01*
X2325Y2395D01*
X2326Y2385D01*
X2327Y2383D01*
X2297Y2353D01*
X2294Y2347D01*
X2292Y2340D01*
Y2270D01*
Y2115D01*
X2292Y2115D01*
X2292D01*
X2294Y2108D01*
X2297Y2102D01*
X2331Y2069D01*
X2329Y2065D01*
X2325D01*
Y2011D01*
X2277Y1963D01*
X2274Y1957D01*
X2272Y1950D01*
Y1680D01*
X2272Y1680D01*
X2272D01*
X2274Y1673D01*
X2277Y1667D01*
X2461Y1484D01*
X2464Y1477D01*
X2464Y1476D01*
X2455Y1470D01*
X2449Y1461D01*
X2445Y1451D01*
X2443Y1440D01*
X2445Y1429D01*
X2449Y1419D01*
X2455Y1410D01*
X2464Y1404D01*
X2474Y1400D01*
X2485Y1398D01*
X2496Y1400D01*
X2506Y1404D01*
X2515Y1410D01*
X2521Y1419D01*
X2525Y1429D01*
X2527Y1440D01*
X2525Y1451D01*
X2521Y1461D01*
X2515Y1470D01*
X2506Y1476D01*
X2503Y1478D01*
Y1485D01*
X2501Y1492D01*
X2498Y1498D01*
X2498Y1498D01*
X2308Y1687D01*
Y1943D01*
X2351Y1985D01*
X2405D01*
Y2065D01*
X2382D01*
X2381Y2067D01*
X2378Y2073D01*
X2378Y2073D01*
X2328Y2122D01*
Y2252D01*
X3820D01*
X3827Y2254D01*
X3833Y2257D01*
X3933Y2357D01*
X3935Y2356D01*
X3945Y2355D01*
X3955Y2356D01*
X3965Y2360D01*
X3973Y2367D01*
X3980Y2375D01*
X3984Y2385D01*
X3985Y2395D01*
X3984Y2405D01*
X3980Y2415D01*
X3973Y2423D01*
X3965Y2430D01*
X3955Y2434D01*
X3945Y2435D01*
D02*
G37*
G36*
X4135Y2235D02*
Y2200D01*
X4170D01*
X4169Y2205D01*
X4165Y2215D01*
X4159Y2224D01*
X4150Y2230D01*
X4140Y2234D01*
X4135Y2235D01*
D02*
G37*
G36*
X2565Y2435D02*
X2555Y2434D01*
X2545Y2430D01*
X2537Y2423D01*
X2530Y2415D01*
X2526Y2405D01*
X2525Y2395D01*
X2526Y2385D01*
X2530Y2375D01*
X2537Y2367D01*
X2545Y2360D01*
X2555Y2356D01*
X2565Y2355D01*
X2575Y2356D01*
X2585Y2360D01*
X2593Y2367D01*
X2600Y2375D01*
X2604Y2385D01*
X2605Y2395D01*
X2604Y2405D01*
X2600Y2415D01*
X2593Y2423D01*
X2585Y2430D01*
X2575Y2434D01*
X2565Y2435D01*
D02*
G37*
G36*
X2465D02*
X2455Y2434D01*
X2445Y2430D01*
X2437Y2423D01*
X2430Y2415D01*
X2426Y2405D01*
X2425Y2395D01*
X2426Y2385D01*
X2430Y2375D01*
X2437Y2367D01*
X2445Y2360D01*
X2455Y2356D01*
X2465Y2355D01*
X2475Y2356D01*
X2485Y2360D01*
X2493Y2367D01*
X2500Y2375D01*
X2504Y2385D01*
X2505Y2395D01*
X2504Y2405D01*
X2500Y2415D01*
X2493Y2423D01*
X2485Y2430D01*
X2475Y2434D01*
X2465Y2435D01*
D02*
G37*
G36*
X2485Y2635D02*
Y2600D01*
X2520D01*
X2519Y2605D01*
X2515Y2615D01*
X2509Y2624D01*
X2500Y2630D01*
X2490Y2634D01*
X2485Y2635D01*
D02*
G37*
G36*
X2475D02*
X2470Y2634D01*
X2460Y2630D01*
X2451Y2624D01*
X2445Y2615D01*
X2441Y2605D01*
X2440Y2600D01*
X2475D01*
Y2635D01*
D02*
G37*
G36*
X4135D02*
Y2600D01*
X4170D01*
X4169Y2605D01*
X4165Y2615D01*
X4159Y2624D01*
X4150Y2630D01*
X4140Y2634D01*
X4135Y2635D01*
D02*
G37*
G36*
X4125D02*
X4120Y2634D01*
X4110Y2630D01*
X4101Y2624D01*
X4095Y2615D01*
X4091Y2605D01*
X4090Y2600D01*
X4125D01*
Y2635D01*
D02*
G37*
G36*
X2520Y2590D02*
X2485D01*
Y2555D01*
X2490Y2556D01*
X2500Y2560D01*
X2509Y2566D01*
X2515Y2575D01*
X2519Y2585D01*
X2520Y2590D01*
D02*
G37*
G36*
X2475D02*
X2440D01*
X2441Y2585D01*
X2445Y2575D01*
X2451Y2566D01*
X2460Y2560D01*
X2470Y2556D01*
X2475Y2555D01*
Y2590D01*
D02*
G37*
G36*
X4170D02*
X4135D01*
Y2555D01*
X4140Y2556D01*
X4150Y2560D01*
X4159Y2566D01*
X4165Y2575D01*
X4169Y2585D01*
X4170Y2590D01*
D02*
G37*
G36*
X4125D02*
X4090D01*
X4091Y2585D01*
X4095Y2575D01*
X4101Y2566D01*
X4110Y2560D01*
X4120Y2556D01*
X4125Y2555D01*
Y2590D01*
D02*
G37*
G36*
X2495Y2064D02*
X2490Y2064D01*
X2480Y2060D01*
X2472Y2053D01*
X2465Y2045D01*
X2461Y2035D01*
X2461Y2030D01*
X2495D01*
Y2064D01*
D02*
G37*
G36*
X3581Y2036D02*
X3545D01*
Y2000D01*
X3581D01*
Y2036D01*
D02*
G37*
G36*
X2380Y2235D02*
X2370Y2234D01*
X2360Y2230D01*
X2351Y2224D01*
X2345Y2215D01*
X2341Y2205D01*
X2340Y2195D01*
X2341Y2185D01*
X2345Y2175D01*
X2351Y2166D01*
X2360Y2160D01*
X2370Y2156D01*
X2380Y2155D01*
X2390Y2156D01*
X2400Y2160D01*
X2409Y2166D01*
X2415Y2175D01*
X2419Y2185D01*
X2420Y2195D01*
X2419Y2205D01*
X2415Y2215D01*
X2409Y2224D01*
X2400Y2230D01*
X2390Y2234D01*
X2380Y2235D01*
D02*
G37*
G36*
X2505Y2064D02*
Y2030D01*
X2539D01*
X2539Y2035D01*
X2535Y2045D01*
X2528Y2053D01*
X2520Y2060D01*
X2510Y2064D01*
X2505Y2064D01*
D02*
G37*
G36*
X2495Y2020D02*
X2461D01*
X2461Y2015D01*
X2465Y2005D01*
X2472Y1997D01*
X2480Y1990D01*
X2490Y1986D01*
X2495Y1986D01*
Y2020D01*
D02*
G37*
G36*
X2655Y2055D02*
X2645Y2054D01*
X2635Y2050D01*
X2626Y2044D01*
X2620Y2035D01*
X2616Y2025D01*
X2615Y2015D01*
X2616Y2005D01*
X2620Y1995D01*
X2626Y1986D01*
X2635Y1980D01*
X2645Y1976D01*
X2655Y1975D01*
X2665Y1976D01*
X2675Y1980D01*
X2684Y1986D01*
X2690Y1995D01*
X2694Y2005D01*
X2695Y2015D01*
X2694Y2025D01*
X2690Y2035D01*
X2684Y2044D01*
X2675Y2050D01*
X2665Y2054D01*
X2655Y2055D01*
D02*
G37*
G36*
X3535Y2036D02*
X3499D01*
Y2000D01*
X3535D01*
Y2036D01*
D02*
G37*
G36*
X2539Y2020D02*
X2505D01*
Y1986D01*
X2510Y1986D01*
X2520Y1990D01*
X2528Y1997D01*
X2535Y2005D01*
X2539Y2015D01*
X2539Y2020D01*
D02*
G37*
G36*
X2475Y2235D02*
X2470Y2234D01*
X2460Y2230D01*
X2451Y2224D01*
X2445Y2215D01*
X2441Y2205D01*
X2440Y2200D01*
X2475D01*
Y2235D01*
D02*
G37*
G36*
X4170Y2190D02*
X4135D01*
Y2155D01*
X4140Y2156D01*
X4150Y2160D01*
X4159Y2166D01*
X4165Y2175D01*
X4169Y2185D01*
X4170Y2190D01*
D02*
G37*
G36*
X4125Y2235D02*
X4120Y2234D01*
X4110Y2230D01*
X4101Y2224D01*
X4095Y2215D01*
X4091Y2205D01*
X4090Y2200D01*
X4125D01*
Y2235D01*
D02*
G37*
G36*
X2485D02*
Y2200D01*
X2520D01*
X2519Y2205D01*
X2515Y2215D01*
X2509Y2224D01*
X2500Y2230D01*
X2490Y2234D01*
X2485Y2235D01*
D02*
G37*
G36*
X2475Y2190D02*
X2440D01*
X2441Y2185D01*
X2445Y2175D01*
X2451Y2166D01*
X2460Y2160D01*
X2470Y2156D01*
X2475Y2155D01*
Y2190D01*
D02*
G37*
G36*
X4145Y2435D02*
X4135Y2434D01*
X4125Y2430D01*
X4117Y2423D01*
X4110Y2415D01*
X4106Y2405D01*
X4105Y2395D01*
X4106Y2385D01*
X4110Y2375D01*
X4117Y2367D01*
X4125Y2360D01*
X4135Y2356D01*
X4145Y2355D01*
X4152Y2356D01*
X4207Y2300D01*
Y2228D01*
X4201Y2224D01*
X4195Y2215D01*
X4191Y2205D01*
X4190Y2195D01*
X4191Y2185D01*
X4195Y2175D01*
X4201Y2166D01*
X4210Y2160D01*
X4220Y2156D01*
X4230Y2155D01*
X4240Y2156D01*
X4250Y2160D01*
X4259Y2166D01*
X4265Y2175D01*
X4269Y2185D01*
X4270Y2195D01*
X4269Y2205D01*
X4265Y2215D01*
X4259Y2224D01*
X4253Y2228D01*
Y2310D01*
X4251Y2319D01*
X4246Y2326D01*
X4222Y2351D01*
X4224Y2355D01*
X4285D01*
Y2435D01*
X4205D01*
Y2374D01*
X4201Y2372D01*
X4184Y2388D01*
X4185Y2395D01*
X4184Y2405D01*
X4180Y2415D01*
X4173Y2423D01*
X4165Y2430D01*
X4155Y2434D01*
X4145Y2435D01*
D02*
G37*
G36*
X4125Y2190D02*
X4090D01*
X4091Y2185D01*
X4095Y2175D01*
X4101Y2166D01*
X4110Y2160D01*
X4120Y2156D01*
X4125Y2155D01*
Y2190D01*
D02*
G37*
G36*
X2520D02*
X2485D01*
Y2155D01*
X2490Y2156D01*
X2500Y2160D01*
X2509Y2166D01*
X2515Y2175D01*
X2519Y2185D01*
X2520Y2190D01*
D02*
G37*
%LPD*%
D14*
X4230Y2195D02*
Y2310D01*
X4145Y2395D02*
X4230Y2310D01*
D16*
X3820Y2270D02*
X3945Y2395D01*
X2310Y2270D02*
X3820D01*
X2310D02*
Y2340D01*
Y2115D02*
Y2270D01*
Y2340D02*
X2365Y2395D01*
X2310Y2115D02*
X2365Y2060D01*
Y2025D02*
Y2060D01*
X2485Y1440D02*
Y1485D01*
X2290Y1680D02*
X2485Y1485D01*
X2290Y1680D02*
Y1950D01*
X2365Y2025D01*
X2500Y1725D02*
X2585Y1640D01*
Y1440D02*
Y1640D01*
X2365Y1725D02*
X2500D01*
D17*
X4230Y2195D02*
D03*
X4130D02*
D03*
X2380Y2595D02*
D03*
X2480D02*
D03*
X2380Y2195D02*
D03*
X2480D02*
D03*
X2655Y2015D02*
D03*
Y1915D02*
D03*
X4230Y2595D02*
D03*
X4130D02*
D03*
D18*
X2585Y1440D02*
D03*
X3540Y1995D02*
D03*
D19*
X2485Y1440D02*
D03*
X2385D02*
D03*
X3740Y1995D02*
D03*
X3640D02*
D03*
D20*
X2365Y1725D02*
D03*
Y1825D02*
D03*
Y1925D02*
D03*
X2500Y2025D02*
D03*
Y1925D02*
D03*
Y1825D02*
D03*
X4145Y2395D02*
D03*
X4045D02*
D03*
X3945D02*
D03*
X3070Y1829D02*
D03*
X2970D02*
D03*
X2565Y2395D02*
D03*
X2465D02*
D03*
X2365D02*
D03*
D21*
Y2025D02*
D03*
X2500Y1725D02*
D03*
D22*
X4245Y2395D02*
D03*
X3170Y1829D02*
D03*
X2665Y2395D02*
D03*
D23*
X3341Y2015D02*
D03*
X2809D02*
D03*
D24*
X4266Y1673D02*
D03*
D25*
X4069Y1799D02*
D03*
Y1555D02*
D03*
D26*
X3069Y1436D02*
D03*
X2781D02*
D03*
M02*
