%FSLAX23Y23*%
%MOIN*%
G70*
G01*
G75*
G04 Layer_Color=16711935*
%ADD10R,0.020X0.055*%
%ADD11R,0.132X0.213*%
%ADD12R,0.037X0.067*%
%ADD13R,0.079X0.087*%
%ADD14C,0.025*%
%ADD15C,0.020*%
%ADD16C,0.015*%
%ADD17O,0.142X0.142*%
%ADD18R,0.063X0.063*%
%ADD19C,0.063*%
%ADD20P,0.128X8X202.5*%
%ADD21P,0.128X8X112.5*%
%ADD22C,0.081*%
%ADD23C,0.060*%
%ADD24R,0.059X0.059*%
%ADD25C,0.059*%
%ADD26R,0.059X0.059*%
%ADD27C,0.010*%
%ADD28C,0.006*%
%ADD29C,0.008*%
%ADD30C,0.005*%
%ADD31C,0.010*%
%ADD32C,0.006*%
%ADD33R,0.028X0.063*%
%ADD34R,0.140X0.221*%
%ADD35R,0.045X0.075*%
%ADD36R,0.087X0.095*%
%ADD37O,0.150X0.150*%
%ADD38R,0.071X0.071*%
%ADD39C,0.071*%
%ADD40P,0.137X8X202.5*%
%ADD41P,0.137X8X112.5*%
%ADD42C,0.089*%
%ADD43C,0.068*%
%ADD44R,0.067X0.067*%
%ADD45C,0.067*%
%ADD46R,0.067X0.067*%
%ADD47C,0.004*%
D47*
X2773Y1270D02*
X3077D01*
X2773D02*
Y1546D01*
X3077D01*
Y1270D02*
Y1546D01*
X2274Y1379D02*
X2696D01*
X2274Y1328D02*
Y1513D01*
X2696Y1328D02*
Y1513D01*
X2274D02*
X2696D01*
X2274Y1328D02*
X2696D01*
X3433Y1383D02*
X3747D01*
X3433Y1597D02*
X3747D01*
Y1383D02*
Y1597D01*
X3433Y1383D02*
Y1597D01*
X2872Y1750D02*
Y1820D01*
X2738Y1750D02*
Y1820D01*
Y1750D02*
X2872D01*
X2738Y1820D02*
X2872D01*
X2872Y1605D02*
Y1675D01*
X2738Y1605D02*
Y1675D01*
Y1605D02*
X2872D01*
X2738Y1675D02*
X2872D01*
X3429Y2107D02*
X3851D01*
X3429Y1922D02*
X3851D01*
X3429D02*
Y2107D01*
X3851Y1922D02*
Y2107D01*
X3429Y2056D02*
X3851D01*
M02*
