M48
;Layer_Color=9474304
;FILE_FORMAT=2:4
INCH
;TYPE=PLATED
T1F00S00C0.0354
T2F00S00C0.0355
T3F00S00C0.0394
T4F00S00C0.0610
T5F00S00C0.0709
T6F00S00C0.1260
%
T01
X031700Y018291
X039450Y023950
X040450
X041450
X042450
X026650
X025650
X024650
X023650
Y020250
Y019250
Y018250
Y017250
X025000
Y018250
Y019250
Y020250
X029700Y018291
X030700
T02
X041300Y021950
X042300
Y025950
X041300
X024800
X023800
Y021950
X024800
X026550Y020150
Y019150
T03
X023850Y014400
X024850
X025850
X035400Y019950
X036400
X037400
T04
X033406Y020150
X028094
T05
X040690Y015550
Y017991
X042659Y016731
T06
X027813Y014357
X030687
M30
