%FSLAX23Y23*%
%MOIN*%
G70*
G01*
G75*
%ADD10R,0.037X0.067*%
%ADD11C,0.010*%
%ADD12C,0.020*%
%ADD13C,0.059*%
%ADD14R,0.059X0.059*%
%ADD15C,0.008*%
%ADD16C,0.006*%
D15*
X1865Y2797D02*
X1905D01*
X1865Y2738D02*
X1905D01*
X2030Y1635D02*
Y2760D01*
Y1560D02*
Y1635D01*
Y1560D02*
X2130D01*
Y2760D01*
X2030D02*
X2130D01*
X1430Y1635D02*
Y2760D01*
Y1560D02*
Y1635D01*
Y1560D02*
X1530D01*
Y2760D01*
X1430D02*
X1530D01*
X1645Y1530D02*
X1685D01*
X1645Y1590D02*
X1685D01*
X1645Y1702D02*
X1685D01*
X1645Y1761D02*
X1685D01*
X1645Y1873D02*
X1685D01*
X1645Y1932D02*
X1685D01*
X1645Y2045D02*
X1685D01*
X1645Y2104D02*
X1685D01*
X1645Y2216D02*
X1685D01*
X1645Y2275D02*
X1685D01*
X1645Y2388D02*
X1685D01*
X1645Y2447D02*
X1685D01*
X1645Y2559D02*
X1685D01*
X1645Y2618D02*
X1685D01*
X1645Y2730D02*
X1685D01*
X1645Y2790D02*
X1685D01*
X1865Y1582D02*
X1905D01*
X1865Y1523D02*
X1905D01*
X1865Y1753D02*
X1905D01*
X1865Y1694D02*
X1905D01*
X1865Y1925D02*
X1905D01*
X1865Y1865D02*
X1905D01*
X1865Y2096D02*
X1905D01*
X1865Y2037D02*
X1905D01*
X1865Y2283D02*
X1905D01*
X1865Y2224D02*
X1905D01*
X1865Y2455D02*
X1905D01*
X1865Y2395D02*
X1905D01*
X1865Y2626D02*
X1905D01*
X1865Y2567D02*
X1905D01*
D16*
X1860Y2815D02*
Y2845D01*
X1875D01*
X1880Y2840D01*
Y2830D01*
X1875Y2825D01*
X1860D01*
X1870D02*
X1880Y2815D01*
X1890Y2840D02*
X1895Y2845D01*
X1905D01*
X1910Y2840D01*
Y2835D01*
X1905Y2830D01*
X1910Y2825D01*
Y2820D01*
X1905Y2815D01*
X1895D01*
X1890Y2820D01*
Y2825D01*
X1895Y2830D01*
X1890Y2835D01*
Y2840D01*
X1895Y2830D02*
X1905D01*
X2075Y2810D02*
X2065D01*
X2070D01*
Y2785D01*
X2065Y2780D01*
X2060D01*
X2055Y2785D01*
X2085Y2780D02*
X2095D01*
X2090D01*
Y2810D01*
X2085Y2805D01*
X1450Y2780D02*
Y2810D01*
X1465D01*
X1470Y2805D01*
Y2795D01*
X1465Y2790D01*
X1450D01*
X1480Y2805D02*
X1485Y2810D01*
X1495D01*
X1500Y2805D01*
Y2800D01*
X1495Y2795D01*
X1490D01*
X1495D01*
X1500Y2790D01*
Y2785D01*
X1495Y2780D01*
X1485D01*
X1480Y2785D01*
X1615Y1640D02*
Y1610D01*
X1635D01*
X1665Y1640D02*
X1645D01*
Y1610D01*
X1665D01*
X1645Y1625D02*
X1655D01*
X1675Y1640D02*
Y1610D01*
X1690D01*
X1695Y1615D01*
Y1635D01*
X1690Y1640D01*
X1675D01*
X1705Y1610D02*
X1715D01*
X1710D01*
Y1640D01*
X1705Y1635D01*
X1610Y1811D02*
Y1781D01*
X1630D01*
X1660Y1811D02*
X1640D01*
Y1781D01*
X1660D01*
X1640Y1796D02*
X1650D01*
X1670Y1811D02*
Y1781D01*
X1685D01*
X1690Y1786D01*
Y1806D01*
X1685Y1811D01*
X1670D01*
X1720Y1781D02*
X1700D01*
X1720Y1801D01*
Y1806D01*
X1715Y1811D01*
X1705D01*
X1700Y1806D01*
X1610Y1983D02*
Y1953D01*
X1630D01*
X1660Y1983D02*
X1640D01*
Y1953D01*
X1660D01*
X1640Y1968D02*
X1650D01*
X1670Y1983D02*
Y1953D01*
X1685D01*
X1690Y1958D01*
Y1978D01*
X1685Y1983D01*
X1670D01*
X1700Y1978D02*
X1705Y1983D01*
X1715D01*
X1720Y1978D01*
Y1973D01*
X1715Y1968D01*
X1710D01*
X1715D01*
X1720Y1963D01*
Y1958D01*
X1715Y1953D01*
X1705D01*
X1700Y1958D01*
X1610Y2154D02*
Y2124D01*
X1630D01*
X1660Y2154D02*
X1640D01*
Y2124D01*
X1660D01*
X1640Y2139D02*
X1650D01*
X1670Y2154D02*
Y2124D01*
X1685D01*
X1690Y2129D01*
Y2149D01*
X1685Y2154D01*
X1670D01*
X1715Y2124D02*
Y2154D01*
X1700Y2139D01*
X1720D01*
X1610Y2326D02*
Y2296D01*
X1630D01*
X1660Y2326D02*
X1640D01*
Y2296D01*
X1660D01*
X1640Y2311D02*
X1650D01*
X1670Y2326D02*
Y2296D01*
X1685D01*
X1690Y2301D01*
Y2321D01*
X1685Y2326D01*
X1670D01*
X1720D02*
X1700D01*
Y2311D01*
X1710Y2316D01*
X1715D01*
X1720Y2311D01*
Y2301D01*
X1715Y2296D01*
X1705D01*
X1700Y2301D01*
X1610Y2497D02*
Y2467D01*
X1630D01*
X1660Y2497D02*
X1640D01*
Y2467D01*
X1660D01*
X1640Y2482D02*
X1650D01*
X1670Y2497D02*
Y2467D01*
X1685D01*
X1690Y2472D01*
Y2492D01*
X1685Y2497D01*
X1670D01*
X1720D02*
X1710Y2492D01*
X1700Y2482D01*
Y2472D01*
X1705Y2467D01*
X1715D01*
X1720Y2472D01*
Y2477D01*
X1715Y2482D01*
X1700D01*
X1610Y2669D02*
Y2639D01*
X1630D01*
X1660Y2669D02*
X1640D01*
Y2639D01*
X1660D01*
X1640Y2654D02*
X1650D01*
X1670Y2669D02*
Y2639D01*
X1685D01*
X1690Y2644D01*
Y2664D01*
X1685Y2669D01*
X1670D01*
X1700D02*
X1720D01*
Y2664D01*
X1700Y2644D01*
Y2639D01*
X1610Y2840D02*
Y2810D01*
X1630D01*
X1660Y2840D02*
X1640D01*
Y2810D01*
X1660D01*
X1640Y2825D02*
X1650D01*
X1670Y2840D02*
Y2810D01*
X1685D01*
X1690Y2815D01*
Y2835D01*
X1685Y2840D01*
X1670D01*
X1700Y2835D02*
X1705Y2840D01*
X1715D01*
X1720Y2835D01*
Y2830D01*
X1715Y2825D01*
X1720Y2820D01*
Y2815D01*
X1715Y2810D01*
X1705D01*
X1700Y2815D01*
Y2820D01*
X1705Y2825D01*
X1700Y2830D01*
Y2835D01*
X1705Y2825D02*
X1715D01*
X1865Y1605D02*
Y1635D01*
X1880D01*
X1885Y1630D01*
Y1620D01*
X1880Y1615D01*
X1865D01*
X1875D02*
X1885Y1605D01*
X1895D02*
X1905D01*
X1900D01*
Y1635D01*
X1895Y1630D01*
X1860Y1774D02*
Y1804D01*
X1875D01*
X1880Y1799D01*
Y1789D01*
X1875Y1784D01*
X1860D01*
X1870D02*
X1880Y1774D01*
X1910D02*
X1890D01*
X1910Y1794D01*
Y1799D01*
X1905Y1804D01*
X1895D01*
X1890Y1799D01*
X1860Y1945D02*
Y1975D01*
X1875D01*
X1880Y1970D01*
Y1960D01*
X1875Y1955D01*
X1860D01*
X1870D02*
X1880Y1945D01*
X1890Y1970D02*
X1895Y1975D01*
X1905D01*
X1910Y1970D01*
Y1965D01*
X1905Y1960D01*
X1900D01*
X1905D01*
X1910Y1955D01*
Y1950D01*
X1905Y1945D01*
X1895D01*
X1890Y1950D01*
X1860Y2116D02*
Y2146D01*
X1875D01*
X1880Y2141D01*
Y2131D01*
X1875Y2126D01*
X1860D01*
X1870D02*
X1880Y2116D01*
X1905D02*
Y2146D01*
X1890Y2131D01*
X1910D01*
X1860Y2304D02*
Y2334D01*
X1875D01*
X1880Y2329D01*
Y2319D01*
X1875Y2314D01*
X1860D01*
X1870D02*
X1880Y2304D01*
X1910Y2334D02*
X1890D01*
Y2319D01*
X1900Y2324D01*
X1905D01*
X1910Y2319D01*
Y2309D01*
X1905Y2304D01*
X1895D01*
X1890Y2309D01*
X1860Y2475D02*
Y2505D01*
X1875D01*
X1880Y2500D01*
Y2490D01*
X1875Y2485D01*
X1860D01*
X1870D02*
X1880Y2475D01*
X1910Y2505D02*
X1900Y2500D01*
X1890Y2490D01*
Y2480D01*
X1895Y2475D01*
X1905D01*
X1910Y2480D01*
Y2485D01*
X1905Y2490D01*
X1890D01*
X1860Y2646D02*
Y2676D01*
X1875D01*
X1880Y2671D01*
Y2661D01*
X1875Y2656D01*
X1860D01*
X1870D02*
X1880Y2646D01*
X1890Y2676D02*
X1910D01*
Y2671D01*
X1890Y2651D01*
Y2646D01*
M02*
