%FSLAX23Y23*%
%MOIN*%
G70*
G01*
G75*
%ADD10R,0.037X0.067*%
%ADD11C,0.010*%
%ADD12C,0.020*%
%ADD13C,0.059*%
%ADD14R,0.059X0.059*%
D10*
X1832Y2768D02*
D03*
X1938D02*
D03*
X1718Y1560D02*
D03*
X1612D02*
D03*
X1718Y1731D02*
D03*
X1612D02*
D03*
X1718Y1903D02*
D03*
X1612D02*
D03*
X1718Y2074D02*
D03*
X1612D02*
D03*
X1718Y2246D02*
D03*
X1612D02*
D03*
X1718Y2417D02*
D03*
X1612D02*
D03*
X1718Y2589D02*
D03*
X1612D02*
D03*
X1718Y2760D02*
D03*
X1612D02*
D03*
X1832Y1552D02*
D03*
X1938D02*
D03*
X1832Y1724D02*
D03*
X1938D02*
D03*
X1832Y1895D02*
D03*
X1938D02*
D03*
X1832Y2066D02*
D03*
X1938D02*
D03*
X1832Y2254D02*
D03*
X1938D02*
D03*
X1832Y2425D02*
D03*
X1938D02*
D03*
X1832Y2596D02*
D03*
X1938D02*
D03*
D13*
X2080Y2710D02*
D03*
Y2610D02*
D03*
Y2510D02*
D03*
Y2410D02*
D03*
Y2310D02*
D03*
Y2210D02*
D03*
Y2110D02*
D03*
Y2010D02*
D03*
Y1910D02*
D03*
Y1810D02*
D03*
Y1710D02*
D03*
X1480Y2710D02*
D03*
Y2610D02*
D03*
Y2510D02*
D03*
Y2410D02*
D03*
Y2310D02*
D03*
Y2210D02*
D03*
Y2110D02*
D03*
Y2010D02*
D03*
Y1910D02*
D03*
Y1810D02*
D03*
Y1710D02*
D03*
D14*
X2080Y1610D02*
D03*
X1480D02*
D03*
M02*
