M48
;Layer_Color=9474304
;FILE_FORMAT=2:4
INCH
;TYPE=PLATED
T1F00S00C0.0120
T2F00S00C0.0354
%
T01
X012196Y015494
X013760Y014990
X014060Y015000
X014360Y015010
X015360Y015500
X015586Y016006
X015390Y016262
X013470Y016010
X013218Y016262
X013410Y017030
X013235Y017285
X013197Y018053
X012730Y018760
X014915Y019495
T02
X010700Y011500
Y012500
Y013500
Y014500
Y015500
X016700
Y014500
Y013500
Y012500
Y011500
Y016500
Y017500
Y018500
Y019500
Y020500
Y021500
Y022500
X010700
Y021500
Y020500
Y019500
Y018500
Y017500
Y016500
M30
