%FSLAX23Y23*%
%MOIN*%
G70*
G01*
G75*
%ADD10C,0.059*%
%ADD11R,0.059X0.059*%
%ADD12C,0.024*%
%ADD13C,0.008*%
%ADD14C,0.067*%
%ADD15R,0.067X0.067*%
%ADD16C,0.028*%
%ADD17C,0.012*%
%ADD18C,0.006*%
%ADD19C,0.002*%
%ADD20C,0.016*%
%ADD21C,0.004*%
%ADD22C,0.005*%
D22*
X638Y1075D02*
X682D01*
X660Y1053D02*
Y1097D01*
X638Y1175D02*
X682D01*
X660Y1153D02*
Y1197D01*
X38Y1075D02*
X82D01*
X60Y1053D02*
Y1097D01*
X38Y975D02*
X82D01*
X60Y953D02*
Y997D01*
X38Y1175D02*
X82D01*
X60Y1153D02*
Y1197D01*
X638Y975D02*
X682D01*
X660Y953D02*
Y997D01*
X638Y875D02*
X682D01*
X660Y853D02*
Y897D01*
X638Y675D02*
X682D01*
X660Y653D02*
Y697D01*
X638Y575D02*
X682D01*
X660Y553D02*
Y597D01*
X638Y775D02*
X682D01*
X660Y753D02*
Y797D01*
X638Y75D02*
X682D01*
X660Y53D02*
Y97D01*
X638Y175D02*
X682D01*
X660Y153D02*
Y197D01*
X638Y275D02*
X682D01*
X660Y253D02*
Y297D01*
X638Y375D02*
X682D01*
X660Y353D02*
Y397D01*
X638Y475D02*
X682D01*
X660Y453D02*
Y497D01*
X38Y675D02*
X82D01*
X60Y653D02*
Y697D01*
X38Y875D02*
X82D01*
X60Y853D02*
Y897D01*
X38Y775D02*
X82D01*
X60Y753D02*
Y797D01*
X38Y575D02*
X82D01*
X60Y553D02*
Y597D01*
X38Y475D02*
X82D01*
X60Y453D02*
Y497D01*
X38Y375D02*
X82D01*
X60Y353D02*
Y397D01*
X38Y275D02*
X82D01*
X60Y253D02*
Y297D01*
X38Y175D02*
X82D01*
X60Y153D02*
Y197D01*
X38Y75D02*
X82D01*
X60Y53D02*
Y97D01*
M02*
