%FSLAX23Y23*%
%MOIN*%
G70*
G01*
G75*
G04 Layer_Color=32768*
%ADD10R,0.020X0.055*%
%ADD11R,0.132X0.213*%
%ADD12R,0.037X0.067*%
%ADD13R,0.079X0.087*%
%ADD14C,0.025*%
%ADD15C,0.020*%
%ADD16C,0.015*%
%ADD17O,0.142X0.142*%
%ADD18R,0.063X0.063*%
%ADD19C,0.063*%
%ADD20P,0.128X8X202.5*%
%ADD21P,0.128X8X112.5*%
%ADD22C,0.081*%
%ADD23C,0.060*%
%ADD24R,0.059X0.059*%
%ADD25C,0.059*%
%ADD26R,0.059X0.059*%
%ADD27C,0.010*%
%ADD28C,0.006*%
%ADD29C,0.008*%
%ADD30C,0.005*%
%ADD31C,0.010*%
%ADD32C,0.006*%
%ADD33R,0.028X0.063*%
%ADD34R,0.140X0.221*%
%ADD35R,0.045X0.075*%
%ADD36R,0.087X0.095*%
%ADD37O,0.150X0.150*%
%ADD38R,0.071X0.071*%
%ADD39C,0.071*%
%ADD40P,0.137X8X202.5*%
%ADD41P,0.137X8X112.5*%
%ADD42C,0.089*%
%ADD43C,0.068*%
%ADD44R,0.067X0.067*%
%ADD45C,0.067*%
%ADD46R,0.067X0.067*%
%ADD47C,0.004*%
%ADD48C,0.002*%
D47*
X2768Y1264D02*
Y1359D01*
X2752D02*
X2768D01*
X2752D02*
Y1512D01*
X2766D01*
Y1564D01*
X3084D01*
Y1514D02*
Y1564D01*
Y1514D02*
X3098D01*
Y1359D02*
Y1514D01*
X3084Y1359D02*
X3098D01*
X3084Y1264D02*
Y1359D01*
X2768Y1264D02*
X3084D01*
X2465Y1440D02*
X2505D01*
X2485Y1420D02*
Y1460D01*
X3590Y1470D02*
Y1510D01*
X3570Y1490D02*
X3610D01*
X2785Y1785D02*
X2825D01*
X2805Y1765D02*
Y1805D01*
X2785Y1640D02*
X2825D01*
X2805Y1620D02*
Y1660D01*
X3640Y1975D02*
Y2015D01*
X3620Y1995D02*
X3660D01*
D48*
X3419Y1378D02*
X3761D01*
X3419Y1602D02*
X3761D01*
Y1378D02*
Y1602D01*
X3419Y1378D02*
Y1602D01*
X2884Y1748D02*
Y1822D01*
X2726Y1748D02*
Y1822D01*
Y1748D02*
X2884D01*
X2726Y1822D02*
X2884D01*
X2884Y1603D02*
Y1677D01*
X2726Y1603D02*
Y1677D01*
Y1603D02*
X2884D01*
X2726Y1677D02*
X2884D01*
M02*
