%FSLAX23Y23*%
%MOIN*%
G70*
G01*
G75*
G04 Layer_Color=255*
%ADD10R,0.051X0.033*%
%ADD11C,0.007*%
%ADD12C,0.020*%
%ADD13C,0.024*%
D13*
X1979Y1418D02*
D03*
X1940D02*
D03*
X1979Y1457D02*
D03*
X1940D02*
D03*
X1979Y1497D02*
D03*
X1940D02*
D03*
X1979Y1536D02*
D03*
X1940D02*
D03*
X1979Y1576D02*
D03*
X1940D02*
D03*
X1979Y1379D02*
D03*
X1940D02*
D03*
X1901D02*
D03*
X1861D02*
D03*
X1822D02*
D03*
X1782D02*
D03*
X1743D02*
D03*
X1979Y1339D02*
D03*
X1940D02*
D03*
X1901D02*
D03*
X1861D02*
D03*
X1822D02*
D03*
X1782D02*
D03*
X1743D02*
D03*
X1704D02*
D03*
X1664D02*
D03*
X1704Y1379D02*
D03*
X1664D02*
D03*
X1704Y1418D02*
D03*
X1664D02*
D03*
X1704Y1457D02*
D03*
X1664D02*
D03*
Y1654D02*
D03*
X1704D02*
D03*
X1743D02*
D03*
X1782D02*
D03*
X1822D02*
D03*
X1861D02*
D03*
X1901D02*
D03*
X1940D02*
D03*
X1979D02*
D03*
X1664Y1615D02*
D03*
X1704D02*
D03*
X1743D02*
D03*
X1782D02*
D03*
X1822D02*
D03*
X1861D02*
D03*
X1901D02*
D03*
X1940D02*
D03*
X1979D02*
D03*
X1664Y1576D02*
D03*
X1704D02*
D03*
X1664Y1536D02*
D03*
X1704D02*
D03*
X1664Y1497D02*
D03*
X1704D02*
D03*
M02*
