%FSLAX23Y23*%
%MOIN*%
G70*
G01*
G75*
G04 Layer_Physical_Order=2*
G04 Layer_Color=16711680*
%ADD10R,0.051X0.033*%
%ADD11C,0.007*%
%ADD12C,0.020*%
%ADD13C,0.024*%
D11*
X1881Y1676D02*
X1901Y1656D01*
Y1654D02*
Y1656D01*
X1841Y1676D02*
X1861Y1656D01*
Y1654D02*
Y1656D01*
X1802Y1677D02*
X1822Y1657D01*
Y1654D02*
Y1657D01*
Y1654D02*
X1841Y1673D01*
X1881Y1674D02*
Y1676D01*
X1861Y1654D02*
X1881Y1674D01*
X1901Y1654D02*
X1920Y1674D01*
Y1676D01*
X1841Y1673D02*
Y1676D01*
X1782Y1654D02*
X1802Y1674D01*
Y1677D01*
X1743Y1339D02*
X1763Y1320D01*
Y1317D02*
Y1320D01*
X1743Y1339D02*
X1745D01*
X1704D02*
X1723Y1320D01*
Y1318D02*
Y1320D01*
X1664Y1339D02*
X1684Y1320D01*
Y1317D02*
Y1320D01*
X1782Y1339D02*
X1800Y1322D01*
X1801D01*
X1782Y1339D02*
X1785D01*
X1664D02*
X1665D01*
D12*
X1841Y1676D02*
D03*
X1881D02*
D03*
X1802Y1677D02*
D03*
X1920Y1676D02*
D03*
X1802Y1318D02*
D03*
X1763Y1317D02*
D03*
X1684D02*
D03*
X1723Y1318D02*
D03*
D13*
X1979Y1418D02*
D03*
X1940D02*
D03*
X1979Y1457D02*
D03*
X1940D02*
D03*
X1979Y1497D02*
D03*
X1940D02*
D03*
X1979Y1536D02*
D03*
X1940D02*
D03*
X1979Y1576D02*
D03*
X1940D02*
D03*
X1979Y1379D02*
D03*
X1940D02*
D03*
X1901D02*
D03*
X1861D02*
D03*
X1822D02*
D03*
X1782D02*
D03*
X1743D02*
D03*
X1979Y1339D02*
D03*
X1940D02*
D03*
X1901D02*
D03*
X1861D02*
D03*
X1822D02*
D03*
X1782D02*
D03*
X1743D02*
D03*
X1704D02*
D03*
X1664D02*
D03*
X1704Y1379D02*
D03*
X1664D02*
D03*
X1704Y1418D02*
D03*
X1664D02*
D03*
X1704Y1457D02*
D03*
X1664D02*
D03*
Y1654D02*
D03*
X1704D02*
D03*
X1743D02*
D03*
X1782D02*
D03*
X1822D02*
D03*
X1861D02*
D03*
X1901D02*
D03*
X1940D02*
D03*
X1979D02*
D03*
X1664Y1615D02*
D03*
X1704D02*
D03*
X1743D02*
D03*
X1782D02*
D03*
X1822D02*
D03*
X1861D02*
D03*
X1901D02*
D03*
X1940D02*
D03*
X1979D02*
D03*
X1664Y1576D02*
D03*
X1704D02*
D03*
X1664Y1536D02*
D03*
X1704D02*
D03*
X1664Y1497D02*
D03*
X1704D02*
D03*
M02*
