%FSAX24Y24*%
%MOIN*%
G70*
G01*
G75*
G04 Layer_Physical_Order=2*
G04 Layer_Color=16711680*
%ADD10R,0.0610X0.0138*%
%ADD11R,0.0374X0.0532*%
%ADD12C,0.0100*%
%ADD13C,0.0591*%
%ADD14R,0.0591X0.0591*%
%ADD15C,0.0200*%
D12*
X016206Y016006D02*
X016700Y016500D01*
X015586Y016006D02*
X016206D01*
X015730Y015500D02*
X016700D01*
X015336Y015894D02*
X015730Y015500D01*
X015336Y015894D02*
Y016208D01*
X015390Y016262D01*
X012196Y011536D02*
Y015494D01*
X012160Y011500D02*
X012196Y011536D01*
X010700Y011500D02*
X016700D01*
X012196Y015494D02*
X015360D01*
X015950Y012500D02*
X016700D01*
X013760Y014690D02*
X015950Y012500D01*
X013760Y014690D02*
Y014990D01*
X015250Y013500D02*
X016700D01*
X014060Y014690D02*
X015250Y013500D01*
X014060Y014690D02*
Y015000D01*
X014533Y014500D02*
X016700D01*
X014360Y014673D02*
X014533Y014500D01*
X014360Y014673D02*
Y015010D01*
X015237Y018500D02*
X016700D01*
X013218Y016262D02*
Y016481D01*
X015237Y018500D01*
X014670Y017650D02*
X016550D01*
X013468Y016448D02*
X014670Y017650D01*
X013468Y016010D02*
Y016448D01*
X013505Y017085D02*
X015920Y019500D01*
X013465Y017085D02*
X013505D01*
X015920Y019500D02*
X016700D01*
X016550Y017650D02*
X016700Y017500D01*
X013405Y017285D02*
X015470Y019350D01*
X013235Y017285D02*
X013405D01*
X013890Y018053D02*
X015270Y019433D01*
X013197Y018053D02*
X013890D01*
X015270Y019433D02*
Y020970D01*
X015470Y019350D02*
Y020120D01*
X013410Y017030D02*
X013465Y017085D01*
X015850Y020500D02*
X016700D01*
X015470Y020120D02*
X015850Y020500D01*
X015800Y021500D02*
X016700D01*
X015270Y020970D02*
X015800Y021500D01*
X010700Y022500D02*
X014430D01*
X014915Y022015D01*
Y019495D02*
Y022015D01*
X012450Y018760D02*
X012730D01*
X012196Y018506D02*
X012450Y018760D01*
X012196Y015494D02*
Y018506D01*
D13*
X010700Y022500D02*
D03*
Y021500D02*
D03*
Y020500D02*
D03*
Y019500D02*
D03*
Y018500D02*
D03*
Y017500D02*
D03*
Y016500D02*
D03*
Y015500D02*
D03*
Y014500D02*
D03*
Y013500D02*
D03*
Y012500D02*
D03*
X016700Y022500D02*
D03*
Y021500D02*
D03*
Y020500D02*
D03*
Y019500D02*
D03*
Y018500D02*
D03*
Y017500D02*
D03*
Y016500D02*
D03*
Y015500D02*
D03*
Y014500D02*
D03*
Y013500D02*
D03*
Y012500D02*
D03*
D14*
X010700Y011500D02*
D03*
X016700D02*
D03*
D15*
X015586Y016006D02*
D03*
X015390Y016262D02*
D03*
X015360Y015500D02*
D03*
X014360Y015010D02*
D03*
X014060Y015000D02*
D03*
X013760Y014990D02*
D03*
X013470Y016010D02*
D03*
X013218Y016262D02*
D03*
X013235Y017285D02*
D03*
X013410Y017030D02*
D03*
X014915Y019495D02*
D03*
X012730Y018760D02*
D03*
X012196Y015494D02*
D03*
X013197Y018053D02*
D03*
M02*
