M48
;Layer_Color=9474304
;FILE_FORMAT=2:3
INCH,TZ
;TYPE=PLATED
T1F00S00C0.010
T3F00S00C0.035
T4F00S00C0.036
T5F00S00C0.039
T6F00S00C0.043
T7F00S00C0.061
T8F00S00C0.071
%
T01
X2209Y59
X2248
X2327
X2366Y60
Y336
X2327
X2287Y337
X2406Y336
X2366Y563
X2327Y562
X2248
X2209
X2287Y841
X2327Y840
X2366
X2406
X2366Y1067
X2327Y1066
X2248
X2209
X2287Y1343
X2327Y1342
X2366
X2406
T03
X-670Y145
Y245
Y345
Y445
X-70
Y345
Y245
Y145
X135Y435
X270
X1715Y1105
X1815
X1915
X2015
X435
X335
X235
X135
X-70Y1145
Y1245
Y1045
Y945
Y845
Y745
Y645
Y545
X135Y535
Y635
Y735
X270
Y635
Y535
X740Y539
X840
X940
X-670Y545
Y645
Y745
Y845
Y945
Y1045
Y1145
Y1245
T04
X1900Y905
X2000
Y1305
X1900
X250
X150
Y905
X250
X425Y725
Y625
T05
X155Y150
X255
X355
X1310Y705
X1410
X1510
T06
X2589Y70
Y170
Y270
Y370
Y470
X3189
Y370
Y270
Y170
Y70
Y570
Y670
Y770
Y870
Y970
Y1070
Y1170
X2589
Y1070
Y970
Y870
Y770
Y670
Y570
T07
X1111Y725
X579
T08
X1839Y265
Y509
X2036Y383
M30
